G75*
G70*
%OFA0B0*%
%FSLAX24Y24*%
%IPPOS*%
%LPD*%
%AMOC8*
5,1,8,0,0,1.08239X$1,22.5*
%
%ADD10C,0.0000*%
D10*
X008003Y000181D02*
X008003Y011205D01*
X022176Y011205D01*
X022176Y000181D01*
X008003Y000181D01*
X014498Y000969D02*
X014500Y001017D01*
X014506Y001065D01*
X014516Y001112D01*
X014529Y001158D01*
X014547Y001203D01*
X014567Y001247D01*
X014592Y001289D01*
X014620Y001328D01*
X014650Y001365D01*
X014684Y001399D01*
X014721Y001431D01*
X014759Y001460D01*
X014800Y001485D01*
X014843Y001507D01*
X014888Y001525D01*
X014934Y001539D01*
X014981Y001550D01*
X015029Y001557D01*
X015077Y001560D01*
X015125Y001559D01*
X015173Y001554D01*
X015221Y001545D01*
X015267Y001533D01*
X015312Y001516D01*
X015356Y001496D01*
X015398Y001473D01*
X015438Y001446D01*
X015476Y001416D01*
X015511Y001383D01*
X015543Y001347D01*
X015573Y001309D01*
X015599Y001268D01*
X015621Y001225D01*
X015641Y001181D01*
X015656Y001136D01*
X015668Y001089D01*
X015676Y001041D01*
X015680Y000993D01*
X015680Y000945D01*
X015676Y000897D01*
X015668Y000849D01*
X015656Y000802D01*
X015641Y000757D01*
X015621Y000713D01*
X015599Y000670D01*
X015573Y000629D01*
X015543Y000591D01*
X015511Y000555D01*
X015476Y000522D01*
X015438Y000492D01*
X015398Y000465D01*
X015356Y000442D01*
X015312Y000422D01*
X015267Y000405D01*
X015221Y000393D01*
X015173Y000384D01*
X015125Y000379D01*
X015077Y000378D01*
X015029Y000381D01*
X014981Y000388D01*
X014934Y000399D01*
X014888Y000413D01*
X014843Y000431D01*
X014800Y000453D01*
X014759Y000478D01*
X014721Y000507D01*
X014684Y000539D01*
X014650Y000573D01*
X014620Y000610D01*
X014592Y000649D01*
X014567Y000691D01*
X014547Y000735D01*
X014529Y000780D01*
X014516Y000826D01*
X014506Y000873D01*
X014500Y000921D01*
X014498Y000969D01*
X014498Y010418D02*
X014500Y010466D01*
X014506Y010514D01*
X014516Y010561D01*
X014529Y010607D01*
X014547Y010652D01*
X014567Y010696D01*
X014592Y010738D01*
X014620Y010777D01*
X014650Y010814D01*
X014684Y010848D01*
X014721Y010880D01*
X014759Y010909D01*
X014800Y010934D01*
X014843Y010956D01*
X014888Y010974D01*
X014934Y010988D01*
X014981Y010999D01*
X015029Y011006D01*
X015077Y011009D01*
X015125Y011008D01*
X015173Y011003D01*
X015221Y010994D01*
X015267Y010982D01*
X015312Y010965D01*
X015356Y010945D01*
X015398Y010922D01*
X015438Y010895D01*
X015476Y010865D01*
X015511Y010832D01*
X015543Y010796D01*
X015573Y010758D01*
X015599Y010717D01*
X015621Y010674D01*
X015641Y010630D01*
X015656Y010585D01*
X015668Y010538D01*
X015676Y010490D01*
X015680Y010442D01*
X015680Y010394D01*
X015676Y010346D01*
X015668Y010298D01*
X015656Y010251D01*
X015641Y010206D01*
X015621Y010162D01*
X015599Y010119D01*
X015573Y010078D01*
X015543Y010040D01*
X015511Y010004D01*
X015476Y009971D01*
X015438Y009941D01*
X015398Y009914D01*
X015356Y009891D01*
X015312Y009871D01*
X015267Y009854D01*
X015221Y009842D01*
X015173Y009833D01*
X015125Y009828D01*
X015077Y009827D01*
X015029Y009830D01*
X014981Y009837D01*
X014934Y009848D01*
X014888Y009862D01*
X014843Y009880D01*
X014800Y009902D01*
X014759Y009927D01*
X014721Y009956D01*
X014684Y009988D01*
X014650Y010022D01*
X014620Y010059D01*
X014592Y010098D01*
X014567Y010140D01*
X014547Y010184D01*
X014529Y010229D01*
X014516Y010275D01*
X014506Y010322D01*
X014500Y010370D01*
X014498Y010418D01*
M02*
