G75*
G70*
%OFA0B0*%
%FSLAX24Y24*%
%IPPOS*%
%LPD*%
%AMOC8*
5,1,8,0,0,1.08239X$1,22.5*
%
%ADD10C,0.0020*%
%ADD11C,0.0060*%
%ADD12C,0.0010*%
%ADD13C,0.0220*%
%ADD14R,0.0180X0.0300*%
D10*
X018519Y005067D02*
X019469Y005067D01*
X019462Y005085D02*
X018518Y005085D01*
X018518Y005067D02*
X018928Y004658D01*
X019416Y004658D01*
X019530Y004918D01*
X019416Y005197D01*
X019215Y005193D01*
X019117Y005300D01*
X019117Y005847D01*
X019223Y005957D01*
X020333Y005957D01*
X020432Y005859D01*
X020436Y005307D01*
X020317Y005189D01*
X020058Y005189D01*
X020180Y004926D01*
X020054Y004658D01*
X020605Y004662D01*
X021006Y005063D01*
X020995Y006087D01*
X020601Y006481D01*
X020601Y006496D01*
X018932Y006500D01*
X018514Y006079D01*
X018518Y005067D01*
X018537Y005048D02*
X019477Y005048D01*
X019484Y005030D02*
X018555Y005030D01*
X018574Y005012D02*
X019492Y005012D01*
X019499Y004994D02*
X018592Y004994D01*
X018610Y004975D02*
X019506Y004975D01*
X019514Y004957D02*
X018628Y004957D01*
X018646Y004939D02*
X019521Y004939D01*
X019529Y004921D02*
X018665Y004921D01*
X018683Y004903D02*
X019523Y004903D01*
X019515Y004884D02*
X018701Y004884D01*
X018719Y004866D02*
X019507Y004866D01*
X019499Y004848D02*
X018738Y004848D01*
X018756Y004830D02*
X019491Y004830D01*
X019483Y004811D02*
X018774Y004811D01*
X018792Y004793D02*
X019475Y004793D01*
X019467Y004775D02*
X018811Y004775D01*
X018829Y004757D02*
X019459Y004757D01*
X019451Y004739D02*
X018847Y004739D01*
X018865Y004720D02*
X019443Y004720D01*
X019435Y004702D02*
X018883Y004702D01*
X018902Y004684D02*
X019427Y004684D01*
X019419Y004666D02*
X018920Y004666D01*
X018518Y005103D02*
X019454Y005103D01*
X019447Y005121D02*
X018518Y005121D01*
X018518Y005140D02*
X019439Y005140D01*
X019432Y005158D02*
X018518Y005158D01*
X018518Y005176D02*
X019425Y005176D01*
X019417Y005194D02*
X019265Y005194D01*
X019214Y005194D02*
X018518Y005194D01*
X018518Y005212D02*
X019197Y005212D01*
X019180Y005231D02*
X018518Y005231D01*
X018518Y005249D02*
X019164Y005249D01*
X019147Y005267D02*
X018517Y005267D01*
X018517Y005285D02*
X019130Y005285D01*
X019117Y005304D02*
X018517Y005304D01*
X018517Y005322D02*
X019117Y005322D01*
X019117Y005340D02*
X018517Y005340D01*
X018517Y005358D02*
X019117Y005358D01*
X019117Y005376D02*
X018517Y005376D01*
X018517Y005395D02*
X019117Y005395D01*
X019117Y005413D02*
X018517Y005413D01*
X018517Y005431D02*
X019117Y005431D01*
X019117Y005449D02*
X018517Y005449D01*
X018517Y005468D02*
X019117Y005468D01*
X019117Y005486D02*
X018517Y005486D01*
X018517Y005504D02*
X019117Y005504D01*
X019117Y005522D02*
X018516Y005522D01*
X018516Y005541D02*
X019117Y005541D01*
X019117Y005559D02*
X018516Y005559D01*
X018516Y005577D02*
X019117Y005577D01*
X019117Y005595D02*
X018516Y005595D01*
X018516Y005613D02*
X019117Y005613D01*
X019117Y005632D02*
X018516Y005632D01*
X018516Y005650D02*
X019117Y005650D01*
X019117Y005668D02*
X018516Y005668D01*
X018516Y005686D02*
X019117Y005686D01*
X019117Y005705D02*
X018516Y005705D01*
X018516Y005723D02*
X019117Y005723D01*
X019117Y005741D02*
X018516Y005741D01*
X018516Y005759D02*
X019117Y005759D01*
X019117Y005778D02*
X018515Y005778D01*
X018515Y005796D02*
X019117Y005796D01*
X019117Y005814D02*
X018515Y005814D01*
X018515Y005832D02*
X019117Y005832D01*
X019120Y005850D02*
X018515Y005850D01*
X018515Y005869D02*
X019138Y005869D01*
X019155Y005887D02*
X018515Y005887D01*
X018515Y005905D02*
X019173Y005905D01*
X019191Y005923D02*
X018515Y005923D01*
X018515Y005942D02*
X019208Y005942D01*
X018739Y006306D02*
X020775Y006306D01*
X020757Y006324D02*
X018757Y006324D01*
X018775Y006343D02*
X020739Y006343D01*
X020721Y006361D02*
X018794Y006361D01*
X018812Y006379D02*
X020703Y006379D01*
X020684Y006397D02*
X018830Y006397D01*
X018848Y006416D02*
X020666Y006416D01*
X020648Y006434D02*
X018866Y006434D01*
X018884Y006452D02*
X020630Y006452D01*
X020611Y006470D02*
X018902Y006470D01*
X018920Y006488D02*
X020601Y006488D01*
X020794Y006288D02*
X018721Y006288D01*
X018703Y006270D02*
X020812Y006270D01*
X020830Y006251D02*
X018685Y006251D01*
X018667Y006233D02*
X020848Y006233D01*
X020867Y006215D02*
X018649Y006215D01*
X018631Y006197D02*
X020885Y006197D01*
X020903Y006179D02*
X018613Y006179D01*
X018595Y006160D02*
X020921Y006160D01*
X020939Y006142D02*
X018577Y006142D01*
X018559Y006124D02*
X020958Y006124D01*
X020976Y006106D02*
X018541Y006106D01*
X018523Y006087D02*
X020994Y006087D01*
X020995Y006069D02*
X018514Y006069D01*
X018514Y006051D02*
X020995Y006051D01*
X020995Y006033D02*
X018514Y006033D01*
X018515Y006014D02*
X020996Y006014D01*
X020996Y005996D02*
X018515Y005996D01*
X018515Y005978D02*
X020996Y005978D01*
X020996Y005960D02*
X018515Y005960D01*
X020064Y005176D02*
X021005Y005176D01*
X021005Y005158D02*
X020072Y005158D01*
X020081Y005140D02*
X021006Y005140D01*
X021006Y005121D02*
X020089Y005121D01*
X020098Y005103D02*
X021006Y005103D01*
X021006Y005085D02*
X020106Y005085D01*
X020114Y005067D02*
X021006Y005067D01*
X020992Y005048D02*
X020123Y005048D01*
X020131Y005030D02*
X020973Y005030D01*
X020955Y005012D02*
X020140Y005012D01*
X020148Y004994D02*
X020937Y004994D01*
X020919Y004975D02*
X020157Y004975D01*
X020165Y004957D02*
X020900Y004957D01*
X020882Y004939D02*
X020173Y004939D01*
X020177Y004921D02*
X020864Y004921D01*
X020846Y004903D02*
X020169Y004903D01*
X020160Y004884D02*
X020827Y004884D01*
X020809Y004866D02*
X020152Y004866D01*
X020143Y004848D02*
X020791Y004848D01*
X020773Y004830D02*
X020135Y004830D01*
X020126Y004811D02*
X020755Y004811D01*
X020736Y004793D02*
X020117Y004793D01*
X020109Y004775D02*
X020718Y004775D01*
X020700Y004757D02*
X020100Y004757D01*
X020092Y004739D02*
X020682Y004739D01*
X020663Y004720D02*
X020083Y004720D01*
X020075Y004702D02*
X020645Y004702D01*
X020627Y004684D02*
X020066Y004684D01*
X020057Y004666D02*
X020609Y004666D01*
X020322Y005194D02*
X021005Y005194D01*
X021005Y005212D02*
X020341Y005212D01*
X020359Y005231D02*
X021005Y005231D01*
X021004Y005249D02*
X020377Y005249D01*
X020395Y005267D02*
X021004Y005267D01*
X021004Y005285D02*
X020414Y005285D01*
X020432Y005304D02*
X021004Y005304D01*
X021004Y005322D02*
X020435Y005322D01*
X020435Y005340D02*
X021003Y005340D01*
X021003Y005358D02*
X020435Y005358D01*
X020435Y005376D02*
X021003Y005376D01*
X021003Y005395D02*
X020435Y005395D01*
X020435Y005413D02*
X021002Y005413D01*
X021002Y005431D02*
X020435Y005431D01*
X020435Y005449D02*
X021002Y005449D01*
X021002Y005468D02*
X020434Y005468D01*
X020434Y005486D02*
X021002Y005486D01*
X021001Y005504D02*
X020434Y005504D01*
X020434Y005522D02*
X021001Y005522D01*
X021001Y005541D02*
X020434Y005541D01*
X020434Y005559D02*
X021001Y005559D01*
X021001Y005577D02*
X020434Y005577D01*
X020434Y005595D02*
X021000Y005595D01*
X021000Y005613D02*
X020433Y005613D01*
X020433Y005632D02*
X021000Y005632D01*
X021000Y005650D02*
X020433Y005650D01*
X020433Y005668D02*
X020999Y005668D01*
X020999Y005686D02*
X020433Y005686D01*
X020433Y005705D02*
X020999Y005705D01*
X020999Y005723D02*
X020433Y005723D01*
X020432Y005741D02*
X020999Y005741D01*
X020998Y005759D02*
X020432Y005759D01*
X020432Y005778D02*
X020998Y005778D01*
X020998Y005796D02*
X020432Y005796D01*
X020432Y005814D02*
X020998Y005814D01*
X020998Y005832D02*
X020432Y005832D01*
X020432Y005850D02*
X020997Y005850D01*
X020997Y005869D02*
X020422Y005869D01*
X020403Y005887D02*
X020997Y005887D01*
X020997Y005905D02*
X020385Y005905D01*
X020367Y005923D02*
X020997Y005923D01*
X020996Y005942D02*
X020349Y005942D01*
D11*
X011122Y002510D02*
X010482Y002510D01*
X010695Y002190D02*
X010909Y002510D01*
X011122Y002190D01*
X011015Y001973D02*
X010802Y001973D01*
X010695Y001866D01*
X010695Y001653D01*
X010802Y001546D01*
X011015Y001546D01*
X011122Y001653D01*
X011122Y001866D01*
X011015Y001973D01*
X011015Y001328D02*
X010695Y001328D01*
X011015Y001328D02*
X011122Y001222D01*
X011122Y000901D01*
X010695Y000901D01*
X010695Y000684D02*
X010695Y000470D01*
X010588Y000577D02*
X011015Y000577D01*
X011122Y000470D01*
X011122Y002727D02*
X010802Y002727D01*
X010695Y002834D01*
X010695Y003048D01*
X010909Y003048D02*
X010909Y002727D01*
X011122Y002727D02*
X011122Y003048D01*
X011015Y003154D01*
X010909Y003048D01*
X010909Y003372D02*
X010909Y003799D01*
X011015Y003799D02*
X010802Y003799D01*
X010695Y003692D01*
X010695Y003479D01*
X010802Y003372D01*
X010909Y003372D01*
X011122Y003479D02*
X011122Y003692D01*
X011015Y003799D01*
X010695Y004016D02*
X010695Y004123D01*
X010909Y004336D01*
X011122Y004336D02*
X010695Y004336D01*
X010695Y004554D02*
X010802Y004660D01*
X010802Y004981D01*
X011122Y004981D02*
X011122Y004660D01*
X011015Y004554D01*
X010909Y004554D01*
X010802Y004660D01*
X010695Y004554D02*
X010588Y004554D01*
X010482Y004660D01*
X010482Y004981D01*
X011122Y004981D01*
X011122Y005843D02*
X010482Y005843D01*
X010482Y006270D02*
X011122Y005843D01*
X011122Y006270D02*
X010482Y006270D01*
X010588Y006487D02*
X010482Y006594D01*
X010482Y006807D01*
X010588Y006914D01*
X011015Y006914D01*
X011122Y006807D01*
X011122Y006594D01*
X011015Y006487D01*
X011122Y007132D02*
X010482Y007132D01*
X010695Y007345D01*
X010482Y007559D01*
X011122Y007559D01*
X011015Y008421D02*
X010802Y008421D01*
X010695Y008528D01*
X010695Y008741D01*
X010802Y008848D01*
X011015Y008848D01*
X011122Y008741D01*
X011122Y008528D01*
X011015Y008421D01*
X011122Y009065D02*
X010802Y009065D01*
X010695Y009172D01*
X010695Y009492D01*
X011122Y009492D01*
X011122Y009710D02*
X011122Y010030D01*
X011015Y010137D01*
X010695Y010137D01*
X010588Y010354D02*
X010482Y010461D01*
X010482Y010781D01*
X011122Y010781D01*
X011122Y010461D01*
X011015Y010354D01*
X010588Y010354D01*
X011336Y009923D02*
X011336Y009817D01*
X011229Y009710D01*
X010695Y009710D01*
D12*
X013459Y008604D02*
X013509Y008579D01*
X013559Y008529D01*
X013484Y008529D01*
X013459Y008504D01*
X013459Y008479D01*
X013484Y008454D01*
X013534Y008454D01*
X013559Y008479D01*
X013559Y008529D01*
X013606Y008529D02*
X013631Y008504D01*
X013706Y008504D01*
X013656Y008504D02*
X013606Y008454D01*
X013606Y008529D02*
X013606Y008579D01*
X013631Y008604D01*
X013706Y008604D01*
X013706Y008454D01*
X014493Y007423D02*
X014493Y007273D01*
X014543Y007273D02*
X014443Y007273D01*
X014543Y007373D02*
X014493Y007423D01*
X014590Y007423D02*
X014690Y007423D01*
X014690Y007273D01*
X014690Y007348D02*
X014640Y007348D01*
X016018Y007273D02*
X016118Y007273D01*
X016068Y007273D02*
X016068Y007423D01*
X016118Y007373D01*
X016165Y007398D02*
X016190Y007423D01*
X016240Y007423D01*
X016265Y007398D01*
X016265Y007298D01*
X016240Y007273D01*
X016190Y007273D01*
X016165Y007298D01*
X016190Y006242D02*
X016165Y006217D01*
X016165Y006167D01*
X016190Y006142D01*
X016265Y006142D01*
X016215Y006142D02*
X016165Y006092D01*
X016118Y006092D02*
X016118Y006117D01*
X016018Y006217D01*
X016018Y006242D01*
X016118Y006242D01*
X016190Y006242D02*
X016265Y006242D01*
X016265Y006092D01*
X015872Y005061D02*
X015796Y005061D01*
X015771Y005036D01*
X015771Y004986D01*
X015796Y004961D01*
X015872Y004961D01*
X015872Y004911D02*
X015872Y005061D01*
X015821Y004961D02*
X015771Y004911D01*
X015724Y004936D02*
X015724Y004961D01*
X015699Y004986D01*
X015649Y004986D01*
X015624Y004961D01*
X015624Y004936D01*
X015649Y004911D01*
X015699Y004911D01*
X015724Y004936D01*
X015699Y004986D02*
X015724Y005011D01*
X015724Y005036D01*
X015699Y005061D01*
X015649Y005061D01*
X015624Y005036D01*
X015624Y005011D01*
X015649Y004986D01*
X014690Y004961D02*
X014615Y004961D01*
X014590Y004986D01*
X014590Y005036D01*
X014615Y005061D01*
X014690Y005061D01*
X014690Y004911D01*
X014640Y004961D02*
X014590Y004911D01*
X014543Y004911D02*
X014443Y004911D01*
X014493Y004911D02*
X014493Y005061D01*
X014543Y005011D01*
X014396Y005036D02*
X014371Y005061D01*
X014321Y005061D01*
X014296Y005036D01*
X014396Y004936D01*
X014371Y004911D01*
X014321Y004911D01*
X014296Y004936D01*
X014296Y005036D01*
X014396Y005036D02*
X014396Y004936D01*
X014346Y003880D02*
X014346Y003730D01*
X014396Y003730D02*
X014296Y003730D01*
X014396Y003830D02*
X014346Y003880D01*
X014493Y003880D02*
X014493Y003730D01*
X014543Y003730D02*
X014443Y003730D01*
X014543Y003830D02*
X014493Y003880D01*
X014590Y003855D02*
X014590Y003805D01*
X014615Y003780D01*
X014690Y003780D01*
X014640Y003780D02*
X014590Y003730D01*
X014690Y003730D02*
X014690Y003880D01*
X014615Y003880D01*
X014590Y003855D01*
X015871Y003855D02*
X015896Y003880D01*
X015946Y003880D01*
X015971Y003855D01*
X016068Y003880D02*
X016068Y003730D01*
X016118Y003730D02*
X016018Y003730D01*
X015971Y003730D02*
X015871Y003830D01*
X015871Y003855D01*
X015871Y003730D02*
X015971Y003730D01*
X016118Y003830D02*
X016068Y003880D01*
X016165Y003855D02*
X016165Y003805D01*
X016190Y003780D01*
X016265Y003780D01*
X016215Y003780D02*
X016165Y003730D01*
X016265Y003730D02*
X016265Y003880D01*
X016190Y003880D01*
X016165Y003855D01*
X016190Y002699D02*
X016165Y002674D01*
X016165Y002624D01*
X016190Y002599D01*
X016265Y002599D01*
X016215Y002599D02*
X016165Y002549D01*
X016118Y002549D02*
X016018Y002549D01*
X016068Y002549D02*
X016068Y002699D01*
X016118Y002649D01*
X016190Y002699D02*
X016265Y002699D01*
X016265Y002549D01*
X014100Y002549D02*
X014100Y002699D01*
X014025Y002699D01*
X014000Y002674D01*
X014000Y002624D01*
X014025Y002599D01*
X014100Y002599D01*
X014050Y002599D02*
X014000Y002549D01*
X013953Y002549D02*
X013852Y002649D01*
X013852Y002674D01*
X013878Y002699D01*
X013928Y002699D01*
X013953Y002674D01*
X013953Y002549D02*
X013852Y002549D01*
X013878Y006092D02*
X013852Y006117D01*
X013852Y006217D01*
X013878Y006242D01*
X013928Y006242D01*
X013953Y006217D01*
X013953Y006192D01*
X013928Y006167D01*
X013852Y006167D01*
X013878Y006092D02*
X013928Y006092D01*
X013953Y006117D01*
X014000Y006092D02*
X014050Y006142D01*
X014025Y006142D02*
X014100Y006142D01*
X014100Y006092D02*
X014100Y006242D01*
X014025Y006242D01*
X014000Y006217D01*
X014000Y006167D01*
X014025Y006142D01*
X016043Y008454D02*
X016093Y008454D01*
X016118Y008479D01*
X016118Y008529D02*
X016068Y008554D01*
X016043Y008554D01*
X016018Y008529D01*
X016018Y008479D01*
X016043Y008454D01*
X016118Y008529D02*
X016118Y008604D01*
X016018Y008604D01*
X016165Y008579D02*
X016165Y008529D01*
X016190Y008504D01*
X016265Y008504D01*
X016215Y008504D02*
X016165Y008454D01*
X016265Y008454D02*
X016265Y008604D01*
X016190Y008604D01*
X016165Y008579D01*
X016165Y009635D02*
X016215Y009685D01*
X016190Y009685D02*
X016265Y009685D01*
X016265Y009635D02*
X016265Y009785D01*
X016190Y009785D01*
X016165Y009760D01*
X016165Y009710D01*
X016190Y009685D01*
X016118Y009660D02*
X016093Y009635D01*
X016043Y009635D01*
X016018Y009660D01*
X016018Y009685D01*
X016043Y009710D01*
X016068Y009710D01*
X016043Y009710D02*
X016018Y009735D01*
X016018Y009760D01*
X016043Y009785D01*
X016093Y009785D01*
X016118Y009760D01*
X014690Y009785D02*
X014690Y009635D01*
X014690Y009685D02*
X014615Y009685D01*
X014590Y009710D01*
X014590Y009760D01*
X014615Y009785D01*
X014690Y009785D01*
X014640Y009685D02*
X014590Y009635D01*
X014543Y009710D02*
X014443Y009710D01*
X014468Y009635D02*
X014468Y009785D01*
X014543Y009710D01*
D13*
X015877Y006886D02*
X015877Y006862D01*
D14*
X015877Y005693D03*
X014302Y005693D03*
X014302Y004512D03*
X014302Y003331D03*
X014302Y002150D03*
X015877Y002150D03*
X015877Y003331D03*
X015877Y004512D03*
X015877Y008055D03*
X014302Y008055D03*
X014302Y009237D03*
X015877Y009237D03*
M02*
