G75*
G70*
%OFA0B0*%
%FSLAX24Y24*%
%IPPOS*%
%LPD*%
%AMOC8*
5,1,8,0,0,1.08239X$1,22.5*
%
%ADD10C,0.1261*%
%ADD11C,0.0552*%
%ADD12R,0.0513X0.0474*%
%ADD13C,0.0370*%
D10*
X015089Y000969D03*
X015089Y010418D03*
D11*
X011940Y002150D03*
X012924Y002150D03*
X012924Y002937D03*
X011940Y002937D03*
X011940Y003725D03*
X011940Y004512D03*
X012924Y004512D03*
X012924Y003725D03*
X012924Y005300D03*
X011940Y005300D03*
X011940Y006087D03*
X012924Y006087D03*
X012924Y006874D03*
X011940Y006874D03*
X011940Y007662D03*
X012924Y007662D03*
X012924Y008449D03*
X011940Y008449D03*
X011940Y009237D03*
X012924Y009237D03*
X017058Y009237D03*
X017058Y010024D03*
X018239Y010024D03*
X018239Y009237D03*
X018239Y008449D03*
X018239Y007662D03*
X018239Y006874D03*
X017058Y006874D03*
X017058Y007662D03*
X017058Y008449D03*
X017058Y004512D03*
X017058Y003725D03*
X017058Y002937D03*
X017058Y002150D03*
X017058Y001363D03*
X018239Y001363D03*
X018239Y002150D03*
X018239Y002937D03*
X018239Y003725D03*
X018239Y004512D03*
D12*
X016211Y004512D03*
X015542Y004512D03*
X014636Y004512D03*
X013967Y004512D03*
X013967Y003331D03*
X014636Y003331D03*
X015542Y003331D03*
X016211Y003331D03*
X016211Y002150D03*
X015542Y002150D03*
X014636Y002150D03*
X013967Y002150D03*
X013967Y005693D03*
X014636Y005693D03*
X015542Y005693D03*
X016211Y005693D03*
X016211Y006874D03*
X015542Y006874D03*
X014636Y006874D03*
X013967Y006874D03*
X013967Y008055D03*
X014636Y008055D03*
X015542Y008055D03*
X016211Y008055D03*
X016211Y009237D03*
X015542Y009237D03*
X014636Y009237D03*
X013967Y009237D03*
D13*
X014105Y008646D03*
X014695Y008646D03*
X015286Y007465D03*
X015483Y006284D03*
X014636Y006146D03*
X016211Y005103D03*
X014892Y003922D03*
X013908Y003803D03*
X014499Y002740D03*
X016270Y001363D03*
M02*
