G75*
G70*
%OFA0B0*%
%FSLAX24Y24*%
%IPPOS*%
%LPD*%
%AMOC8*
5,1,8,0,0,1.08239X$1,22.5*
%
%ADD10C,0.0472*%
%ADD11R,0.0433X0.0394*%
%ADD12C,0.0160*%
%ADD13C,0.0240*%
%ADD14C,0.0120*%
%ADD15C,0.0290*%
D10*
X011940Y002150D03*
X012924Y002150D03*
X012924Y002937D03*
X011940Y002937D03*
X011940Y003725D03*
X011940Y004512D03*
X012924Y004512D03*
X012924Y003725D03*
X012924Y005300D03*
X011940Y005300D03*
X011940Y006087D03*
X012924Y006087D03*
X012924Y006874D03*
X011940Y006874D03*
X011940Y007662D03*
X012924Y007662D03*
X012924Y008449D03*
X011940Y008449D03*
X011940Y009237D03*
X012924Y009237D03*
X017058Y009237D03*
X017058Y010024D03*
X018239Y010024D03*
X018239Y009237D03*
X018239Y008449D03*
X018239Y007662D03*
X018239Y006874D03*
X017058Y006874D03*
X017058Y007662D03*
X017058Y008449D03*
X017058Y004512D03*
X017058Y003725D03*
X017058Y002937D03*
X017058Y002150D03*
X017058Y001363D03*
X018239Y001363D03*
X018239Y002150D03*
X018239Y002937D03*
X018239Y003725D03*
X018239Y004512D03*
D11*
X016211Y004512D03*
X015542Y004512D03*
X014636Y004512D03*
X013967Y004512D03*
X013967Y003331D03*
X014636Y003331D03*
X015542Y003331D03*
X016211Y003331D03*
X016211Y002150D03*
X015542Y002150D03*
X014636Y002150D03*
X013967Y002150D03*
X013967Y005693D03*
X014636Y005693D03*
X015542Y005693D03*
X016211Y005693D03*
X016211Y006874D03*
X015542Y006874D03*
X014636Y006874D03*
X013967Y006874D03*
X013967Y008055D03*
X014636Y008055D03*
X015542Y008055D03*
X016211Y008055D03*
X016211Y009237D03*
X015542Y009237D03*
X014636Y009237D03*
X013967Y009237D03*
D12*
X008232Y003402D02*
X008232Y000411D01*
X014486Y000411D01*
X014394Y000504D01*
X014269Y000806D01*
X014269Y001132D01*
X014347Y001322D01*
X014108Y001083D01*
X013991Y000966D01*
X011629Y000966D01*
X011463Y000966D01*
X010872Y001556D01*
X010755Y001673D01*
X010755Y005807D01*
X010755Y005973D01*
X011569Y006786D01*
X011563Y006799D01*
X011563Y006949D01*
X011621Y007087D01*
X011726Y007193D01*
X011865Y007251D01*
X012014Y007251D01*
X012153Y007193D01*
X012258Y007087D01*
X012316Y006949D01*
X012316Y006799D01*
X012258Y006661D01*
X012153Y006555D01*
X012014Y006498D01*
X011865Y006498D01*
X011852Y006504D01*
X011773Y006425D01*
X011865Y006463D01*
X012014Y006463D01*
X012153Y006406D01*
X012258Y006300D01*
X012316Y006162D01*
X012316Y006012D01*
X012258Y005874D01*
X012153Y005768D01*
X012014Y005711D01*
X011865Y005711D01*
X011726Y005768D01*
X011621Y005874D01*
X011563Y006012D01*
X011563Y006162D01*
X011601Y006253D01*
X011155Y005807D01*
X011155Y001839D01*
X011629Y001366D01*
X013825Y001366D01*
X014242Y001782D01*
X014207Y001773D01*
X013986Y001773D01*
X013986Y002131D01*
X013949Y002131D01*
X013949Y001773D01*
X013727Y001773D01*
X013681Y001785D01*
X013640Y001809D01*
X013606Y001843D01*
X013583Y001884D01*
X013571Y001929D01*
X013571Y002131D01*
X013948Y002131D01*
X013948Y002168D01*
X013571Y002168D01*
X013571Y002370D01*
X013583Y002416D01*
X013606Y002457D01*
X013640Y002491D01*
X013681Y002514D01*
X013727Y002527D01*
X013949Y002527D01*
X013949Y002169D01*
X013986Y002169D01*
X013986Y002527D01*
X014207Y002527D01*
X014253Y002514D01*
X014294Y002491D01*
X014328Y002457D01*
X014329Y002454D01*
X014362Y002487D01*
X014366Y002487D01*
X014337Y002499D01*
X014257Y002579D01*
X014214Y002684D01*
X014214Y002797D01*
X014257Y002902D01*
X014337Y002982D01*
X014366Y002994D01*
X014362Y002994D01*
X014302Y003054D01*
X014242Y002994D01*
X013693Y002994D01*
X013611Y003076D01*
X013611Y003586D01*
X013667Y003642D01*
X013666Y003642D01*
X013623Y003747D01*
X013623Y003860D01*
X013666Y003965D01*
X013747Y004045D01*
X013851Y004088D01*
X013965Y004088D01*
X014069Y004045D01*
X014150Y003965D01*
X014193Y003860D01*
X014193Y003747D01*
X014167Y003684D01*
X014167Y003668D01*
X014242Y003668D01*
X014302Y003608D01*
X014362Y003668D01*
X014760Y003668D01*
X014731Y003680D01*
X014651Y003760D01*
X014607Y003865D01*
X014607Y003924D01*
X014554Y003977D01*
X014554Y003977D01*
X014436Y004095D01*
X014436Y004175D01*
X014362Y004175D01*
X014329Y004208D01*
X014328Y004205D01*
X014294Y004171D01*
X014253Y004148D01*
X014207Y004135D01*
X013986Y004135D01*
X013986Y004493D01*
X013949Y004493D01*
X013949Y004135D01*
X013727Y004135D01*
X013681Y004148D01*
X013640Y004171D01*
X013606Y004205D01*
X013583Y004246D01*
X013571Y004292D01*
X013571Y004494D01*
X013948Y004494D01*
X013948Y004531D01*
X013571Y004531D01*
X013571Y004733D01*
X013583Y004778D01*
X013606Y004819D01*
X013640Y004853D01*
X013681Y004877D01*
X013727Y004889D01*
X013949Y004889D01*
X013949Y004531D01*
X013986Y004531D01*
X013986Y004889D01*
X014207Y004889D01*
X014253Y004877D01*
X014294Y004853D01*
X014328Y004819D01*
X014329Y004816D01*
X014362Y004849D01*
X014436Y004849D01*
X014436Y005356D01*
X014362Y005356D01*
X014302Y005416D01*
X014242Y005356D01*
X013693Y005356D01*
X013611Y005438D01*
X013611Y005948D01*
X013693Y006030D01*
X013767Y006030D01*
X013767Y006537D01*
X013693Y006537D01*
X013616Y006614D01*
X013196Y006614D01*
X013137Y006555D01*
X012999Y006498D01*
X012849Y006498D01*
X012711Y006555D01*
X012605Y006661D01*
X012548Y006799D01*
X012548Y006949D01*
X012605Y007087D01*
X012711Y007193D01*
X012849Y007251D01*
X012999Y007251D01*
X013137Y007193D01*
X013196Y007134D01*
X013616Y007134D01*
X013693Y007211D01*
X014242Y007211D01*
X014302Y007151D01*
X014362Y007211D01*
X014665Y007211D01*
X015019Y007566D01*
X015044Y007626D01*
X015125Y007706D01*
X015229Y007750D01*
X015236Y007750D01*
X015185Y007801D01*
X015185Y007855D01*
X014993Y007855D01*
X014993Y007801D01*
X014911Y007719D01*
X014362Y007719D01*
X014329Y007751D01*
X014328Y007748D01*
X014294Y007715D01*
X014253Y007691D01*
X014207Y007679D01*
X013986Y007679D01*
X013986Y008037D01*
X013949Y008037D01*
X013949Y007679D01*
X013727Y007679D01*
X013681Y007691D01*
X013640Y007715D01*
X013606Y007748D01*
X013583Y007789D01*
X013571Y007835D01*
X013571Y008037D01*
X013948Y008037D01*
X013948Y008074D01*
X013571Y008074D01*
X013571Y008276D01*
X013583Y008322D01*
X013606Y008363D01*
X013640Y008396D01*
X013681Y008420D01*
X013727Y008432D01*
X013916Y008432D01*
X013863Y008485D01*
X013820Y008589D01*
X013820Y008703D01*
X013863Y008807D01*
X013916Y008860D01*
X013727Y008860D01*
X013681Y008872D01*
X013640Y008896D01*
X013606Y008929D01*
X013583Y008970D01*
X013571Y009016D01*
X013571Y009218D01*
X013948Y009218D01*
X013948Y009255D01*
X013571Y009255D01*
X013571Y009457D01*
X013583Y009503D01*
X013606Y009544D01*
X013640Y009577D01*
X013681Y009601D01*
X013727Y009613D01*
X013949Y009613D01*
X013949Y009255D01*
X013986Y009255D01*
X013986Y009613D01*
X014207Y009613D01*
X014253Y009601D01*
X014294Y009577D01*
X014328Y009544D01*
X014329Y009541D01*
X014362Y009573D01*
X014911Y009573D01*
X014993Y009491D01*
X014993Y009436D01*
X015185Y009436D01*
X015185Y009491D01*
X015267Y009573D01*
X015816Y009573D01*
X015876Y009513D01*
X015937Y009573D01*
X016324Y009573D01*
X016464Y009713D01*
X016581Y009830D01*
X016731Y009830D01*
X016681Y009949D01*
X016681Y010099D01*
X016739Y010237D01*
X016845Y010343D01*
X016983Y010400D01*
X017132Y010400D01*
X017271Y010343D01*
X017377Y010237D01*
X017434Y010099D01*
X017434Y009949D01*
X017385Y009830D01*
X017762Y009830D01*
X017912Y009830D01*
X017863Y009949D01*
X017863Y010099D01*
X017920Y010237D01*
X018026Y010343D01*
X018164Y010400D01*
X018314Y010400D01*
X018452Y010343D01*
X018558Y010237D01*
X018615Y010099D01*
X018615Y009949D01*
X018558Y009811D01*
X018452Y009705D01*
X018314Y009648D01*
X018164Y009648D01*
X018072Y009686D01*
X018151Y009607D01*
X018164Y009613D01*
X018314Y009613D01*
X018452Y009555D01*
X018558Y009450D01*
X018615Y009311D01*
X018615Y009162D01*
X018558Y009023D01*
X018452Y008918D01*
X018314Y008860D01*
X018303Y008860D01*
X018336Y008855D01*
X018399Y008835D01*
X018457Y008805D01*
X018510Y008767D01*
X018556Y008720D01*
X018595Y008667D01*
X018624Y008609D01*
X018645Y008547D01*
X018655Y008482D01*
X018655Y008449D01*
X018239Y008449D01*
X018239Y008449D01*
X018655Y008449D01*
X018655Y008416D01*
X018645Y008352D01*
X018624Y008289D01*
X018595Y008231D01*
X018556Y008178D01*
X018510Y008132D01*
X018457Y008093D01*
X018399Y008063D01*
X018336Y008043D01*
X018303Y008038D01*
X018314Y008038D01*
X018452Y007981D01*
X018558Y007875D01*
X018615Y007737D01*
X018615Y007587D01*
X018558Y007449D01*
X018452Y007343D01*
X018314Y007286D01*
X018303Y007286D01*
X018336Y007280D01*
X018399Y007260D01*
X018457Y007230D01*
X018510Y007192D01*
X018556Y007145D01*
X018595Y007092D01*
X018624Y007034D01*
X018645Y006972D01*
X018655Y006907D01*
X018655Y006874D01*
X018239Y006874D01*
X018239Y006874D01*
X018239Y006458D01*
X018271Y006458D01*
X018336Y006468D01*
X018399Y006489D01*
X018457Y006518D01*
X018510Y006557D01*
X018556Y006603D01*
X018595Y006656D01*
X018624Y006715D01*
X018645Y006777D01*
X018655Y006842D01*
X018655Y006874D01*
X018239Y006874D01*
X018239Y006874D01*
X018239Y006458D01*
X018206Y006458D01*
X018141Y006468D01*
X018079Y006489D01*
X018021Y006518D01*
X017968Y006557D01*
X017921Y006603D01*
X017883Y006656D01*
X017853Y006715D01*
X017833Y006777D01*
X017823Y006842D01*
X017823Y006874D01*
X018238Y006874D01*
X018238Y006874D01*
X017823Y006874D01*
X017823Y006907D01*
X017833Y006972D01*
X017853Y007034D01*
X017883Y007092D01*
X017921Y007145D01*
X017968Y007192D01*
X018021Y007230D01*
X018079Y007260D01*
X018141Y007280D01*
X018174Y007286D01*
X018164Y007286D01*
X018026Y007343D01*
X017920Y007449D01*
X017863Y007587D01*
X017863Y007737D01*
X017868Y007750D01*
X017762Y007855D01*
X017385Y007855D01*
X017434Y007737D01*
X017434Y007587D01*
X017377Y007449D01*
X017271Y007343D01*
X017132Y007286D01*
X016983Y007286D01*
X016845Y007343D01*
X016739Y007449D01*
X016681Y007587D01*
X016681Y007737D01*
X016731Y007855D01*
X016568Y007855D01*
X016568Y007801D01*
X016486Y007719D01*
X015937Y007719D01*
X015876Y007779D01*
X015816Y007719D01*
X015418Y007719D01*
X015447Y007706D01*
X015528Y007626D01*
X015571Y007522D01*
X015571Y007408D01*
X015528Y007303D01*
X015447Y007223D01*
X015418Y007211D01*
X015816Y007211D01*
X015849Y007179D01*
X015851Y007182D01*
X015884Y007215D01*
X015925Y007239D01*
X015971Y007251D01*
X016193Y007251D01*
X016193Y006893D01*
X016230Y006893D01*
X016608Y006893D01*
X016608Y007095D01*
X016595Y007141D01*
X016572Y007182D01*
X016538Y007215D01*
X016497Y007239D01*
X016451Y007251D01*
X016230Y007251D01*
X016230Y006893D01*
X016230Y006856D01*
X016608Y006856D01*
X016608Y006654D01*
X016595Y006608D01*
X016572Y006567D01*
X016538Y006533D01*
X016497Y006510D01*
X016451Y006497D01*
X016230Y006497D01*
X016230Y006856D01*
X016193Y006856D01*
X016193Y006497D01*
X015971Y006497D01*
X015925Y006510D01*
X015884Y006533D01*
X015851Y006567D01*
X015849Y006570D01*
X015816Y006537D01*
X015742Y006537D01*
X015742Y006426D01*
X015742Y006403D01*
X015768Y006340D01*
X015768Y006227D01*
X015742Y006164D01*
X015742Y006030D01*
X015816Y006030D01*
X015877Y005970D01*
X015937Y006030D01*
X016486Y006030D01*
X016568Y005948D01*
X016568Y005438D01*
X016486Y005356D01*
X016411Y005356D01*
X016411Y005306D01*
X016453Y005264D01*
X016496Y005159D01*
X016496Y005046D01*
X016453Y004941D01*
X016411Y004900D01*
X016411Y004849D01*
X016486Y004849D01*
X016568Y004767D01*
X016568Y004438D01*
X016691Y004315D01*
X016672Y004352D01*
X016652Y004415D01*
X016641Y004479D01*
X016641Y004512D01*
X017057Y004512D01*
X017057Y004512D01*
X016641Y004512D01*
X016641Y004545D01*
X016652Y004610D01*
X016672Y004672D01*
X016702Y004730D01*
X016740Y004783D01*
X016786Y004830D01*
X016839Y004868D01*
X016898Y004898D01*
X016960Y004918D01*
X017025Y004928D01*
X017057Y004928D01*
X017057Y004513D01*
X017058Y004513D01*
X017058Y004928D01*
X017090Y004928D01*
X017155Y004918D01*
X017217Y004898D01*
X017276Y004868D01*
X017329Y004830D01*
X017375Y004783D01*
X017414Y004730D01*
X017443Y004672D01*
X017464Y004610D01*
X017474Y004545D01*
X017474Y004512D01*
X017058Y004512D01*
X017058Y004512D01*
X017474Y004512D01*
X017474Y004479D01*
X017464Y004415D01*
X017443Y004352D01*
X017414Y004294D01*
X017375Y004241D01*
X017329Y004195D01*
X017276Y004156D01*
X017217Y004126D01*
X017155Y004106D01*
X017122Y004101D01*
X017132Y004101D01*
X017271Y004044D01*
X017377Y003938D01*
X017434Y003800D01*
X017434Y003650D01*
X017377Y003512D01*
X017271Y003406D01*
X017132Y003349D01*
X017122Y003349D01*
X017155Y003343D01*
X017217Y003323D01*
X017276Y003293D01*
X017329Y003255D01*
X017375Y003208D01*
X017414Y003155D01*
X017443Y003097D01*
X017464Y003035D01*
X017474Y002970D01*
X017474Y002937D01*
X017058Y002937D01*
X017058Y002937D01*
X017474Y002937D01*
X017474Y002905D01*
X017464Y002840D01*
X017443Y002778D01*
X017414Y002719D01*
X017392Y002689D01*
X017731Y002350D01*
X017848Y002233D01*
X017848Y002036D01*
X017900Y001984D01*
X017863Y002075D01*
X017863Y002225D01*
X017920Y002363D01*
X018026Y002469D01*
X018164Y002526D01*
X018314Y002526D01*
X018452Y002469D01*
X018558Y002363D01*
X018615Y002225D01*
X018615Y002075D01*
X018558Y001937D01*
X018452Y001831D01*
X018314Y001774D01*
X018164Y001774D01*
X018072Y001812D01*
X018151Y001733D01*
X018164Y001739D01*
X018314Y001739D01*
X018452Y001681D01*
X018558Y001576D01*
X018615Y001437D01*
X018615Y001288D01*
X018558Y001149D01*
X018452Y001044D01*
X018314Y000986D01*
X018164Y000986D01*
X018026Y001044D01*
X017920Y001149D01*
X017863Y001288D01*
X017863Y001437D01*
X017868Y001450D01*
X017429Y001450D01*
X017434Y001437D02*
X017377Y001576D01*
X017271Y001681D01*
X017132Y001739D01*
X017122Y001739D01*
X017155Y001744D01*
X017217Y001764D01*
X017276Y001794D01*
X017329Y001832D01*
X017375Y001879D01*
X017414Y001932D01*
X017443Y001990D01*
X017448Y002005D01*
X017448Y001870D01*
X017868Y001450D01*
X017863Y001291D02*
X017434Y001291D01*
X017434Y001288D02*
X017434Y001437D01*
X017434Y001288D02*
X017377Y001149D01*
X017271Y001044D01*
X017132Y000986D01*
X016983Y000986D01*
X016845Y001044D01*
X016739Y001149D01*
X016681Y001288D01*
X016681Y001437D01*
X016739Y001576D01*
X016845Y001681D01*
X016983Y001739D01*
X016993Y001739D01*
X016960Y001744D01*
X016898Y001764D01*
X016839Y001794D01*
X016786Y001832D01*
X016740Y001879D01*
X016702Y001932D01*
X016672Y001990D01*
X016652Y002052D01*
X016641Y002117D01*
X016641Y002150D01*
X017057Y002150D01*
X017057Y002150D01*
X016641Y002150D01*
X016641Y002183D01*
X016652Y002247D01*
X016672Y002310D01*
X016689Y002344D01*
X016568Y002344D01*
X016568Y001895D01*
X016486Y001813D01*
X016470Y001813D01*
X016470Y001566D01*
X016512Y001524D01*
X016555Y001419D01*
X016555Y001306D01*
X016512Y001201D01*
X016432Y001121D01*
X016327Y001078D01*
X016214Y001078D01*
X016109Y001121D01*
X016029Y001201D01*
X015985Y001306D01*
X015985Y001419D01*
X016029Y001524D01*
X016070Y001566D01*
X016070Y001813D01*
X015937Y001813D01*
X015876Y001873D01*
X015816Y001813D01*
X015267Y001813D01*
X015185Y001895D01*
X015185Y001950D01*
X014993Y001950D01*
X014993Y001895D01*
X014911Y001813D01*
X014836Y001813D01*
X014836Y001811D01*
X014736Y001711D01*
X014926Y001789D01*
X015252Y001789D01*
X015554Y001664D01*
X015785Y001434D01*
X015910Y001132D01*
X015910Y000806D01*
X015785Y000504D01*
X015692Y000411D01*
X021946Y000411D01*
X021946Y010975D01*
X015692Y010975D01*
X015785Y010882D01*
X015910Y010581D01*
X015910Y010254D01*
X015785Y009953D01*
X015554Y009722D01*
X015252Y009597D01*
X014926Y009597D01*
X014624Y009722D01*
X014394Y009953D01*
X014269Y010254D01*
X014269Y010581D01*
X014394Y010882D01*
X014486Y010975D01*
X008232Y010975D01*
X008232Y007985D01*
X008291Y008126D01*
X008522Y008357D01*
X008824Y008482D01*
X009150Y008482D01*
X009452Y008357D01*
X009682Y008126D01*
X009807Y007825D01*
X009807Y007498D01*
X009682Y007197D01*
X009452Y006966D01*
X009150Y006841D01*
X008824Y006841D01*
X008522Y006966D01*
X008291Y007197D01*
X008232Y007339D01*
X008232Y004048D01*
X008291Y004189D01*
X008522Y004420D01*
X008824Y004545D01*
X009150Y004545D01*
X009452Y004420D01*
X009682Y004189D01*
X009807Y003888D01*
X009807Y003561D01*
X009682Y003260D01*
X009452Y003029D01*
X009150Y002904D01*
X008824Y002904D01*
X008522Y003029D01*
X008291Y003260D01*
X008232Y003402D01*
X008232Y003352D02*
X008253Y003352D01*
X008232Y003194D02*
X008357Y003194D01*
X008232Y003035D02*
X008516Y003035D01*
X008232Y002877D02*
X010755Y002877D01*
X010755Y003035D02*
X009458Y003035D01*
X009616Y003194D02*
X010755Y003194D01*
X010755Y003352D02*
X009721Y003352D01*
X009786Y003511D02*
X010755Y003511D01*
X010755Y003669D02*
X009807Y003669D01*
X009807Y003828D02*
X010755Y003828D01*
X010755Y003986D02*
X009766Y003986D01*
X009701Y004145D02*
X010755Y004145D01*
X010755Y004304D02*
X009568Y004304D01*
X009351Y004462D02*
X010755Y004462D01*
X010755Y004621D02*
X008232Y004621D01*
X008232Y004779D02*
X010755Y004779D01*
X010755Y004938D02*
X008232Y004938D01*
X008232Y005096D02*
X010755Y005096D01*
X010755Y005255D02*
X008232Y005255D01*
X008232Y005413D02*
X010755Y005413D01*
X010755Y005572D02*
X008232Y005572D01*
X008232Y005730D02*
X010755Y005730D01*
X010755Y005889D02*
X008232Y005889D01*
X008232Y006048D02*
X010830Y006048D01*
X010988Y006206D02*
X008232Y006206D01*
X008232Y006365D02*
X011147Y006365D01*
X011306Y006523D02*
X008232Y006523D01*
X008232Y006682D02*
X011464Y006682D01*
X011563Y006840D02*
X008232Y006840D01*
X008232Y006999D02*
X008489Y006999D01*
X008331Y007157D02*
X008232Y007157D01*
X008232Y007316D02*
X008242Y007316D01*
X008232Y008109D02*
X008284Y008109D01*
X008232Y008267D02*
X008432Y008267D01*
X008232Y008426D02*
X008687Y008426D01*
X008232Y008584D02*
X011588Y008584D01*
X011563Y008524D02*
X011621Y008662D01*
X011726Y008768D01*
X011865Y008825D01*
X012014Y008825D01*
X012153Y008768D01*
X012258Y008662D01*
X012316Y008524D01*
X012316Y008374D01*
X012258Y008236D01*
X012153Y008130D01*
X012014Y008073D01*
X011865Y008073D01*
X011726Y008130D01*
X011621Y008236D01*
X011563Y008374D01*
X011563Y008524D01*
X011563Y008426D02*
X009287Y008426D01*
X009542Y008267D02*
X011608Y008267D01*
X011779Y008109D02*
X009690Y008109D01*
X009755Y007950D02*
X011696Y007950D01*
X011726Y007981D02*
X011621Y007875D01*
X011563Y007737D01*
X011563Y007587D01*
X011621Y007449D01*
X011726Y007343D01*
X011865Y007286D01*
X012014Y007286D01*
X012153Y007343D01*
X012258Y007449D01*
X012316Y007587D01*
X012316Y007737D01*
X012258Y007875D01*
X012153Y007981D01*
X012014Y008038D01*
X011865Y008038D01*
X011726Y007981D01*
X011586Y007791D02*
X009807Y007791D01*
X009807Y007633D02*
X011563Y007633D01*
X011610Y007474D02*
X009797Y007474D01*
X009732Y007316D02*
X011791Y007316D01*
X011691Y007157D02*
X009643Y007157D01*
X009484Y006999D02*
X011584Y006999D01*
X012088Y007316D02*
X012776Y007316D01*
X012711Y007343D02*
X012849Y007286D01*
X012999Y007286D01*
X013137Y007343D01*
X013243Y007449D01*
X013300Y007587D01*
X013300Y007737D01*
X013243Y007875D01*
X013137Y007981D01*
X012999Y008038D01*
X012849Y008038D01*
X012711Y007981D01*
X012605Y007875D01*
X012548Y007737D01*
X012548Y007587D01*
X012605Y007449D01*
X012711Y007343D01*
X012594Y007474D02*
X012269Y007474D01*
X012316Y007633D02*
X012548Y007633D01*
X012570Y007791D02*
X012293Y007791D01*
X012183Y007950D02*
X012680Y007950D01*
X012763Y008109D02*
X012100Y008109D01*
X012271Y008267D02*
X012592Y008267D01*
X012605Y008236D02*
X012548Y008374D01*
X012548Y008524D01*
X012605Y008662D01*
X012711Y008768D01*
X012849Y008825D01*
X012999Y008825D01*
X013137Y008768D01*
X013243Y008662D01*
X013300Y008524D01*
X013300Y008374D01*
X013243Y008236D01*
X013137Y008130D01*
X012999Y008073D01*
X012849Y008073D01*
X012711Y008130D01*
X012605Y008236D01*
X012548Y008426D02*
X012316Y008426D01*
X012291Y008584D02*
X012573Y008584D01*
X012685Y008743D02*
X012178Y008743D01*
X012113Y008901D02*
X012750Y008901D01*
X012711Y008918D02*
X012849Y008860D01*
X012999Y008860D01*
X013137Y008918D01*
X013243Y009023D01*
X013300Y009162D01*
X013300Y009311D01*
X013243Y009450D01*
X013137Y009555D01*
X012999Y009613D01*
X012849Y009613D01*
X012711Y009555D01*
X012605Y009450D01*
X012548Y009311D01*
X012548Y009162D01*
X012605Y009023D01*
X012711Y008918D01*
X012590Y009060D02*
X012274Y009060D01*
X012258Y009023D02*
X012316Y009162D01*
X012316Y009311D01*
X012258Y009450D01*
X012153Y009555D01*
X012014Y009613D01*
X011865Y009613D01*
X011726Y009555D01*
X011621Y009450D01*
X011563Y009311D01*
X011563Y009162D01*
X011621Y009023D01*
X011726Y008918D01*
X011865Y008860D01*
X012014Y008860D01*
X012153Y008918D01*
X012258Y009023D01*
X012316Y009218D02*
X012548Y009218D01*
X012575Y009377D02*
X012289Y009377D01*
X012173Y009535D02*
X012691Y009535D01*
X013157Y009535D02*
X013602Y009535D01*
X013571Y009377D02*
X013273Y009377D01*
X013300Y009218D02*
X013948Y009218D01*
X013949Y009377D02*
X013986Y009377D01*
X013986Y009535D02*
X013949Y009535D01*
X014494Y009853D02*
X008232Y009853D01*
X008232Y010011D02*
X014369Y010011D01*
X014304Y010170D02*
X008232Y010170D01*
X008232Y010328D02*
X014269Y010328D01*
X014269Y010487D02*
X008232Y010487D01*
X008232Y010645D02*
X014295Y010645D01*
X014361Y010804D02*
X008232Y010804D01*
X008232Y010962D02*
X014474Y010962D01*
X015705Y010962D02*
X021946Y010962D01*
X021946Y010804D02*
X015817Y010804D01*
X015883Y010645D02*
X021946Y010645D01*
X021946Y010487D02*
X015910Y010487D01*
X015910Y010328D02*
X016830Y010328D01*
X016711Y010170D02*
X015875Y010170D01*
X015809Y010011D02*
X016681Y010011D01*
X016721Y009853D02*
X015684Y009853D01*
X015486Y009694D02*
X016445Y009694D01*
X016719Y009403D02*
X016681Y009311D01*
X016681Y009162D01*
X016739Y009023D01*
X016845Y008918D01*
X016983Y008860D01*
X017132Y008860D01*
X017271Y008918D01*
X017377Y009023D01*
X017434Y009162D01*
X017434Y009311D01*
X017385Y009430D01*
X017762Y009430D01*
X017868Y009324D01*
X017863Y009311D01*
X017863Y009162D01*
X017920Y009023D01*
X018026Y008918D01*
X018164Y008860D01*
X018174Y008860D01*
X018141Y008855D01*
X018079Y008835D01*
X018021Y008805D01*
X017968Y008767D01*
X017921Y008720D01*
X017883Y008667D01*
X017853Y008609D01*
X017833Y008547D01*
X017823Y008482D01*
X017823Y008449D01*
X017823Y008416D01*
X017833Y008352D01*
X017853Y008289D01*
X017870Y008255D01*
X017762Y008255D01*
X017385Y008255D01*
X017434Y008374D01*
X017434Y008524D01*
X017377Y008662D01*
X017271Y008768D01*
X017132Y008825D01*
X016983Y008825D01*
X016845Y008768D01*
X016739Y008662D01*
X016681Y008524D01*
X016681Y008374D01*
X016731Y008255D01*
X016568Y008255D01*
X016568Y008310D01*
X016486Y008392D01*
X015937Y008392D01*
X015876Y008332D01*
X015816Y008392D01*
X015267Y008392D01*
X015185Y008310D01*
X015185Y008255D01*
X014993Y008255D01*
X014993Y008310D01*
X014911Y008392D01*
X014827Y008392D01*
X014857Y008404D01*
X014937Y008485D01*
X014980Y008589D01*
X014980Y008703D01*
X014937Y008807D01*
X014857Y008888D01*
X014836Y008896D01*
X014836Y008900D01*
X014911Y008900D01*
X014993Y008982D01*
X014993Y009037D01*
X015185Y009037D01*
X015185Y008982D01*
X015267Y008900D01*
X015816Y008900D01*
X015876Y008960D01*
X015937Y008900D01*
X016486Y008900D01*
X016568Y008982D01*
X016568Y009251D01*
X016719Y009403D01*
X016709Y009377D02*
X016693Y009377D01*
X016681Y009218D02*
X016568Y009218D01*
X016568Y009060D02*
X016724Y009060D01*
X016884Y008901D02*
X016487Y008901D01*
X016706Y008584D02*
X014978Y008584D01*
X014964Y008743D02*
X016819Y008743D01*
X016681Y008426D02*
X014878Y008426D01*
X014993Y008267D02*
X015185Y008267D01*
X015194Y007791D02*
X014984Y007791D01*
X015051Y007633D02*
X013300Y007633D01*
X013277Y007791D02*
X013582Y007791D01*
X013571Y007950D02*
X013167Y007950D01*
X013085Y008109D02*
X013571Y008109D01*
X013571Y008267D02*
X013256Y008267D01*
X013300Y008426D02*
X013702Y008426D01*
X013822Y008584D02*
X013275Y008584D01*
X013162Y008743D02*
X013836Y008743D01*
X013634Y008901D02*
X013097Y008901D01*
X013258Y009060D02*
X013571Y009060D01*
X014692Y009694D02*
X008232Y009694D01*
X008232Y009535D02*
X011706Y009535D01*
X011590Y009377D02*
X008232Y009377D01*
X008232Y009218D02*
X011563Y009218D01*
X011605Y009060D02*
X008232Y009060D01*
X008232Y008901D02*
X011766Y008901D01*
X011701Y008743D02*
X008232Y008743D01*
X011554Y006206D02*
X011582Y006206D01*
X011563Y006048D02*
X011396Y006048D01*
X011237Y005889D02*
X011614Y005889D01*
X011817Y005730D02*
X011155Y005730D01*
X011155Y005572D02*
X011680Y005572D01*
X011726Y005618D02*
X011621Y005513D01*
X011563Y005374D01*
X011563Y005225D01*
X011621Y005086D01*
X011726Y004981D01*
X011865Y004923D01*
X011875Y004923D01*
X011842Y004918D01*
X011780Y004898D01*
X011721Y004868D01*
X011668Y004830D01*
X011622Y004783D01*
X011584Y004730D01*
X011554Y004672D01*
X011534Y004610D01*
X011523Y004545D01*
X011523Y004512D01*
X011523Y004479D01*
X011534Y004415D01*
X011554Y004352D01*
X011584Y004294D01*
X011622Y004241D01*
X011668Y004195D01*
X011721Y004156D01*
X011780Y004126D01*
X011804Y004118D01*
X011780Y004110D01*
X011721Y004081D01*
X011668Y004042D01*
X011622Y003996D01*
X011584Y003943D01*
X011554Y003884D01*
X011534Y003822D01*
X011523Y003757D01*
X011523Y003725D01*
X011939Y003725D01*
X011939Y003724D01*
X011523Y003724D01*
X011523Y003692D01*
X011534Y003627D01*
X011554Y003565D01*
X011584Y003507D01*
X011622Y003454D01*
X011668Y003407D01*
X011721Y003369D01*
X011780Y003339D01*
X011842Y003319D01*
X011875Y003314D01*
X011865Y003314D01*
X011726Y003256D01*
X011621Y003150D01*
X011563Y003012D01*
X011563Y002862D01*
X011621Y002724D01*
X011726Y002618D01*
X011865Y002561D01*
X012014Y002561D01*
X012153Y002618D01*
X012258Y002724D01*
X012316Y002862D01*
X012316Y003012D01*
X012258Y003150D01*
X012153Y003256D01*
X012014Y003314D01*
X012004Y003314D01*
X012037Y003319D01*
X012099Y003339D01*
X012158Y003369D01*
X012211Y003407D01*
X012257Y003454D01*
X012295Y003507D01*
X012325Y003565D01*
X012345Y003627D01*
X012356Y003692D01*
X012356Y003724D01*
X011940Y003724D01*
X011940Y003725D01*
X012356Y003725D01*
X012356Y003757D01*
X012345Y003822D01*
X012325Y003884D01*
X012295Y003943D01*
X012257Y003996D01*
X012211Y004042D01*
X012158Y004081D01*
X012099Y004110D01*
X012075Y004118D01*
X012099Y004126D01*
X012158Y004156D01*
X012211Y004195D01*
X012257Y004241D01*
X012295Y004294D01*
X012325Y004352D01*
X012345Y004415D01*
X012356Y004479D01*
X012356Y004512D01*
X011940Y004512D01*
X011940Y004512D01*
X012356Y004512D01*
X012356Y004545D01*
X012345Y004610D01*
X012325Y004672D01*
X012295Y004730D01*
X012257Y004783D01*
X012211Y004830D01*
X012158Y004868D01*
X012099Y004898D01*
X012037Y004918D01*
X012004Y004923D01*
X012014Y004923D01*
X012153Y004981D01*
X012258Y005086D01*
X012316Y005225D01*
X012316Y005374D01*
X012258Y005513D01*
X012153Y005618D01*
X012014Y005676D01*
X011865Y005676D01*
X011726Y005618D01*
X011579Y005413D02*
X011155Y005413D01*
X011155Y005255D02*
X011563Y005255D01*
X011616Y005096D02*
X011155Y005096D01*
X011155Y004938D02*
X011830Y004938D01*
X012049Y004938D02*
X012814Y004938D01*
X012849Y004923D02*
X012999Y004923D01*
X013137Y004981D01*
X013243Y005086D01*
X013300Y005225D01*
X013300Y005374D01*
X013243Y005513D01*
X013137Y005618D01*
X012999Y005676D01*
X012849Y005676D01*
X012711Y005618D01*
X012605Y005513D01*
X012548Y005374D01*
X012548Y005225D01*
X012605Y005086D01*
X012711Y004981D01*
X012849Y004923D01*
X012849Y004888D02*
X012711Y004831D01*
X012605Y004725D01*
X012548Y004587D01*
X012548Y004437D01*
X012605Y004299D01*
X012711Y004193D01*
X012849Y004136D01*
X012999Y004136D01*
X013137Y004193D01*
X013243Y004299D01*
X013300Y004437D01*
X013300Y004587D01*
X013243Y004725D01*
X013137Y004831D01*
X012999Y004888D01*
X012849Y004888D01*
X013033Y004938D02*
X014436Y004938D01*
X014436Y005096D02*
X013247Y005096D01*
X013300Y005255D02*
X014436Y005255D01*
X014305Y005413D02*
X014299Y005413D01*
X014836Y005356D02*
X014911Y005356D01*
X014993Y005438D01*
X014993Y005948D01*
X014911Y006030D01*
X014897Y006030D01*
X014921Y006089D01*
X014921Y006203D01*
X014878Y006307D01*
X014798Y006388D01*
X014693Y006431D01*
X014580Y006431D01*
X014475Y006388D01*
X014395Y006307D01*
X014351Y006203D01*
X014351Y006089D01*
X014376Y006030D01*
X014362Y006030D01*
X014302Y005970D01*
X014242Y006030D01*
X014167Y006030D01*
X014167Y006537D01*
X014242Y006537D01*
X014302Y006598D01*
X014362Y006537D01*
X014911Y006537D01*
X014993Y006619D01*
X014993Y006804D01*
X015185Y006997D01*
X015185Y006619D01*
X015267Y006537D01*
X015342Y006537D01*
X015342Y006534D01*
X015321Y006525D01*
X015241Y006445D01*
X015198Y006340D01*
X015198Y006227D01*
X015241Y006122D01*
X015321Y006042D01*
X015342Y006034D01*
X015342Y006030D01*
X015267Y006030D01*
X015185Y005948D01*
X015185Y005438D01*
X015267Y005356D01*
X015816Y005356D01*
X015877Y005416D01*
X015937Y005356D01*
X016011Y005356D01*
X016011Y005306D01*
X015970Y005264D01*
X015926Y005159D01*
X015926Y005046D01*
X015970Y004941D01*
X016011Y004900D01*
X016011Y004849D01*
X015937Y004849D01*
X015904Y004816D01*
X015902Y004819D01*
X015869Y004853D01*
X015828Y004877D01*
X015782Y004889D01*
X015560Y004889D01*
X015560Y004531D01*
X015523Y004531D01*
X015523Y004889D01*
X015302Y004889D01*
X015256Y004877D01*
X015215Y004853D01*
X015181Y004819D01*
X015158Y004778D01*
X015145Y004733D01*
X015145Y004531D01*
X015523Y004531D01*
X015523Y004494D01*
X015145Y004494D01*
X015145Y004292D01*
X015158Y004246D01*
X015181Y004205D01*
X015215Y004171D01*
X015256Y004148D01*
X015302Y004135D01*
X015523Y004135D01*
X015523Y004493D01*
X015560Y004493D01*
X015560Y004135D01*
X015782Y004135D01*
X015828Y004148D01*
X015869Y004171D01*
X015902Y004205D01*
X015904Y004208D01*
X015937Y004175D01*
X016265Y004175D01*
X016681Y003759D01*
X016681Y003650D01*
X016739Y003512D01*
X016845Y003406D01*
X016983Y003349D01*
X016993Y003349D01*
X016960Y003343D01*
X016898Y003323D01*
X016839Y003293D01*
X016786Y003255D01*
X016740Y003208D01*
X016702Y003155D01*
X016672Y003097D01*
X016652Y003035D01*
X016578Y003035D01*
X016572Y003024D02*
X016595Y003065D01*
X016608Y003110D01*
X016608Y003313D01*
X016230Y003313D01*
X016230Y003349D01*
X016608Y003349D01*
X016608Y003552D01*
X016595Y003597D01*
X016572Y003638D01*
X016538Y003672D01*
X016497Y003696D01*
X016451Y003708D01*
X016230Y003708D01*
X016230Y003350D01*
X016193Y003350D01*
X016193Y003708D01*
X015971Y003708D01*
X015925Y003696D01*
X015884Y003672D01*
X015851Y003638D01*
X015849Y003635D01*
X015816Y003668D01*
X015267Y003668D01*
X015185Y003586D01*
X015185Y003551D01*
X014993Y003551D01*
X014993Y003586D01*
X014942Y003637D01*
X014949Y003637D01*
X015054Y003680D01*
X015134Y003760D01*
X015177Y003865D01*
X015177Y003978D01*
X015134Y004083D01*
X015054Y004163D01*
X014949Y004207D01*
X014942Y004207D01*
X014993Y004257D01*
X014993Y004767D01*
X014911Y004849D01*
X014836Y004849D01*
X014836Y005356D01*
X014836Y005255D02*
X015966Y005255D01*
X015926Y005096D02*
X014836Y005096D01*
X014836Y004938D02*
X015973Y004938D01*
X015560Y004779D02*
X015523Y004779D01*
X015523Y004621D02*
X015560Y004621D01*
X015560Y004462D02*
X015523Y004462D01*
X015523Y004304D02*
X015560Y004304D01*
X015560Y004145D02*
X015523Y004145D01*
X015265Y004145D02*
X015072Y004145D01*
X015145Y004304D02*
X014993Y004304D01*
X014993Y004462D02*
X015145Y004462D01*
X015145Y004621D02*
X014993Y004621D01*
X014981Y004779D02*
X015158Y004779D01*
X015210Y005413D02*
X014968Y005413D01*
X014993Y005572D02*
X015185Y005572D01*
X015185Y005730D02*
X014993Y005730D01*
X014993Y005889D02*
X015185Y005889D01*
X015316Y006048D02*
X014904Y006048D01*
X014920Y006206D02*
X015206Y006206D01*
X015208Y006365D02*
X014821Y006365D01*
X014993Y006682D02*
X015185Y006682D01*
X015185Y006840D02*
X015029Y006840D01*
X015319Y006523D02*
X014167Y006523D01*
X014167Y006365D02*
X014452Y006365D01*
X014353Y006206D02*
X014167Y006206D01*
X014167Y006048D02*
X014369Y006048D01*
X013767Y006048D02*
X013300Y006048D01*
X013300Y006012D02*
X013243Y005874D01*
X013137Y005768D01*
X012999Y005711D01*
X012849Y005711D01*
X012711Y005768D01*
X012605Y005874D01*
X012548Y006012D01*
X012548Y006162D01*
X012605Y006300D01*
X012711Y006406D01*
X012849Y006463D01*
X012999Y006463D01*
X013137Y006406D01*
X013243Y006300D01*
X013300Y006162D01*
X013300Y006012D01*
X013249Y005889D02*
X013611Y005889D01*
X013611Y005730D02*
X013046Y005730D01*
X013183Y005572D02*
X013611Y005572D01*
X013636Y005413D02*
X013284Y005413D01*
X012801Y005730D02*
X012062Y005730D01*
X012199Y005572D02*
X012664Y005572D01*
X012564Y005413D02*
X012300Y005413D01*
X012316Y005255D02*
X012548Y005255D01*
X012601Y005096D02*
X012262Y005096D01*
X012260Y004779D02*
X012659Y004779D01*
X012562Y004621D02*
X012342Y004621D01*
X012353Y004462D02*
X012548Y004462D01*
X012603Y004304D02*
X012300Y004304D01*
X012136Y004145D02*
X012827Y004145D01*
X012849Y004101D02*
X012711Y004044D01*
X012605Y003938D01*
X012548Y003800D01*
X012548Y003650D01*
X012605Y003512D01*
X012711Y003406D01*
X012849Y003349D01*
X012999Y003349D01*
X013137Y003406D01*
X013243Y003512D01*
X013300Y003650D01*
X013300Y003800D01*
X013243Y003938D01*
X013137Y004044D01*
X012999Y004101D01*
X012849Y004101D01*
X013021Y004145D02*
X013691Y004145D01*
X013688Y003986D02*
X013194Y003986D01*
X013288Y003828D02*
X013623Y003828D01*
X013655Y003669D02*
X013300Y003669D01*
X013242Y003511D02*
X013611Y003511D01*
X013611Y003352D02*
X013008Y003352D01*
X012999Y003314D02*
X012849Y003314D01*
X012711Y003256D01*
X012605Y003150D01*
X012548Y003012D01*
X012548Y002862D01*
X012605Y002724D01*
X012711Y002618D01*
X012849Y002561D01*
X012999Y002561D01*
X013137Y002618D01*
X013243Y002724D01*
X013300Y002862D01*
X013300Y003012D01*
X013243Y003150D01*
X013137Y003256D01*
X012999Y003314D01*
X012840Y003352D02*
X012125Y003352D01*
X012215Y003194D02*
X012648Y003194D01*
X012557Y003035D02*
X012306Y003035D01*
X012316Y002877D02*
X012548Y002877D01*
X012611Y002718D02*
X012252Y002718D01*
X012153Y002469D02*
X012014Y002526D01*
X011865Y002526D01*
X011726Y002469D01*
X011621Y002363D01*
X011563Y002225D01*
X011563Y002075D01*
X011621Y001937D01*
X011726Y001831D01*
X011865Y001774D01*
X012014Y001774D01*
X012153Y001831D01*
X012258Y001937D01*
X012316Y002075D01*
X012316Y002225D01*
X012258Y002363D01*
X012153Y002469D01*
X012220Y002401D02*
X012643Y002401D01*
X012605Y002363D02*
X012548Y002225D01*
X012548Y002075D01*
X012605Y001937D01*
X012711Y001831D01*
X012849Y001774D01*
X012999Y001774D01*
X013137Y001831D01*
X013243Y001937D01*
X013300Y002075D01*
X013300Y002225D01*
X013243Y002363D01*
X013137Y002469D01*
X012999Y002526D01*
X012849Y002526D01*
X012711Y002469D01*
X012605Y002363D01*
X012555Y002242D02*
X012308Y002242D01*
X012316Y002084D02*
X012548Y002084D01*
X012616Y001925D02*
X012247Y001925D01*
X011632Y001925D02*
X011155Y001925D01*
X011155Y002084D02*
X011563Y002084D01*
X011571Y002242D02*
X011155Y002242D01*
X011155Y002401D02*
X011659Y002401D01*
X011627Y002718D02*
X011155Y002718D01*
X011155Y002560D02*
X014276Y002560D01*
X014214Y002718D02*
X013237Y002718D01*
X013300Y002877D02*
X014247Y002877D01*
X014283Y003035D02*
X014321Y003035D01*
X014636Y003331D02*
X015542Y003331D01*
X015882Y003669D02*
X015028Y003669D01*
X015162Y003828D02*
X016613Y003828D01*
X016681Y003669D02*
X016541Y003669D01*
X016608Y003511D02*
X016739Y003511D01*
X016608Y003352D02*
X016974Y003352D01*
X017142Y003352D02*
X018053Y003352D01*
X018079Y003339D02*
X018141Y003319D01*
X018175Y003314D01*
X018164Y003314D01*
X018026Y003256D01*
X017920Y003150D01*
X017863Y003012D01*
X017863Y002862D01*
X017920Y002724D01*
X018026Y002618D01*
X018164Y002561D01*
X018314Y002561D01*
X018452Y002618D01*
X018558Y002724D01*
X018615Y002862D01*
X018615Y003012D01*
X018558Y003150D01*
X018452Y003256D01*
X018314Y003314D01*
X018303Y003314D01*
X018336Y003319D01*
X018399Y003339D01*
X018457Y003369D01*
X018510Y003407D01*
X018556Y003454D01*
X018595Y003507D01*
X018624Y003565D01*
X018645Y003627D01*
X018655Y003692D01*
X018655Y003724D01*
X018239Y003724D01*
X018239Y003725D01*
X018655Y003725D01*
X018655Y003757D01*
X018645Y003822D01*
X018624Y003884D01*
X018595Y003943D01*
X018556Y003996D01*
X018510Y004042D01*
X018457Y004081D01*
X018399Y004110D01*
X018336Y004131D01*
X018303Y004136D01*
X018314Y004136D01*
X018452Y004193D01*
X018558Y004299D01*
X018615Y004437D01*
X018615Y004587D01*
X018558Y004725D01*
X018452Y004831D01*
X018314Y004888D01*
X018164Y004888D01*
X018026Y004831D01*
X017920Y004725D01*
X017863Y004587D01*
X017863Y004437D01*
X017920Y004299D01*
X018026Y004193D01*
X018164Y004136D01*
X018175Y004136D01*
X018141Y004131D01*
X018079Y004110D01*
X018021Y004081D01*
X017968Y004042D01*
X017921Y003996D01*
X017883Y003943D01*
X017853Y003884D01*
X017833Y003822D01*
X017823Y003757D01*
X017823Y003725D01*
X018238Y003725D01*
X018238Y003724D01*
X017823Y003724D01*
X017823Y003692D01*
X017833Y003627D01*
X017853Y003565D01*
X017883Y003507D01*
X017921Y003454D01*
X017968Y003407D01*
X018021Y003369D01*
X018079Y003339D01*
X017963Y003194D02*
X017386Y003194D01*
X017463Y003035D02*
X017872Y003035D01*
X017863Y002877D02*
X017469Y002877D01*
X017413Y002718D02*
X017926Y002718D01*
X017958Y002401D02*
X017680Y002401D01*
X017838Y002242D02*
X017870Y002242D01*
X017863Y002084D02*
X017848Y002084D01*
X017448Y001925D02*
X017409Y001925D01*
X017552Y001767D02*
X017223Y001767D01*
X017344Y001608D02*
X017710Y001608D01*
X018117Y001767D02*
X021946Y001767D01*
X021946Y001925D02*
X018546Y001925D01*
X018615Y002084D02*
X021946Y002084D01*
X021946Y002242D02*
X018608Y002242D01*
X018520Y002401D02*
X021946Y002401D01*
X021946Y002560D02*
X017521Y002560D01*
X017057Y002937D02*
X016641Y002937D01*
X016641Y002905D01*
X016652Y002840D01*
X016672Y002778D01*
X016689Y002744D01*
X016412Y002744D01*
X016193Y002963D01*
X016193Y003312D01*
X016230Y003312D01*
X016230Y002954D01*
X016451Y002954D01*
X016497Y002966D01*
X016538Y002990D01*
X016572Y003024D01*
X016652Y003035D02*
X016641Y002970D01*
X016641Y002937D01*
X017057Y002937D01*
X017057Y002937D01*
X016646Y002877D02*
X016279Y002877D01*
X016230Y003035D02*
X016193Y003035D01*
X016193Y003194D02*
X016230Y003194D01*
X016230Y003352D02*
X016193Y003352D01*
X016193Y003511D02*
X016230Y003511D01*
X016230Y003669D02*
X016193Y003669D01*
X016454Y003986D02*
X015174Y003986D01*
X014756Y003669D02*
X014167Y003669D01*
X014193Y003828D02*
X014623Y003828D01*
X014545Y003986D02*
X014128Y003986D01*
X014244Y004145D02*
X014436Y004145D01*
X013986Y004145D02*
X013949Y004145D01*
X013949Y004304D02*
X013986Y004304D01*
X013986Y004462D02*
X013949Y004462D01*
X013949Y004621D02*
X013986Y004621D01*
X013986Y004779D02*
X013949Y004779D01*
X013583Y004779D02*
X013189Y004779D01*
X013286Y004621D02*
X013571Y004621D01*
X013571Y004462D02*
X013300Y004462D01*
X013245Y004304D02*
X013571Y004304D01*
X012654Y003986D02*
X012264Y003986D01*
X012344Y003828D02*
X012559Y003828D01*
X012548Y003669D02*
X012352Y003669D01*
X012298Y003511D02*
X012606Y003511D01*
X013199Y003194D02*
X013611Y003194D01*
X013651Y003035D02*
X013290Y003035D01*
X013205Y002401D02*
X013579Y002401D01*
X013571Y002242D02*
X013293Y002242D01*
X013300Y002084D02*
X013571Y002084D01*
X013572Y001925D02*
X013231Y001925D01*
X013949Y001925D02*
X013986Y001925D01*
X013986Y002084D02*
X013949Y002084D01*
X013949Y002242D02*
X013986Y002242D01*
X013986Y002401D02*
X013949Y002401D01*
X014226Y001767D02*
X011227Y001767D01*
X011386Y001608D02*
X014068Y001608D01*
X013909Y001450D02*
X011545Y001450D01*
X011296Y001133D02*
X008232Y001133D01*
X008232Y001291D02*
X011137Y001291D01*
X010979Y001450D02*
X008232Y001450D01*
X008232Y001608D02*
X010820Y001608D01*
X010755Y001767D02*
X008232Y001767D01*
X008232Y001925D02*
X010755Y001925D01*
X010755Y002084D02*
X008232Y002084D01*
X008232Y002242D02*
X010755Y002242D01*
X010755Y002401D02*
X008232Y002401D01*
X008232Y002560D02*
X010755Y002560D01*
X010755Y002718D02*
X008232Y002718D01*
X008232Y004145D02*
X008273Y004145D01*
X008232Y004304D02*
X008405Y004304D01*
X008232Y004462D02*
X008623Y004462D01*
X011155Y004462D02*
X011526Y004462D01*
X011523Y004512D02*
X011939Y004512D01*
X011939Y004512D01*
X011523Y004512D01*
X011537Y004621D02*
X011155Y004621D01*
X011155Y004779D02*
X011619Y004779D01*
X011939Y004512D02*
X011940Y004512D01*
X011940Y004096D01*
X011940Y003725D01*
X011939Y003725D01*
X011939Y004096D01*
X011939Y004512D01*
X011939Y004462D02*
X011940Y004462D01*
X011939Y004304D02*
X011940Y004304D01*
X011939Y004145D02*
X011940Y004145D01*
X011939Y003986D02*
X011940Y003986D01*
X011939Y003828D02*
X011940Y003828D01*
X011615Y003986D02*
X011155Y003986D01*
X011155Y003828D02*
X011535Y003828D01*
X011527Y003669D02*
X011155Y003669D01*
X011155Y003511D02*
X011581Y003511D01*
X011754Y003352D02*
X011155Y003352D01*
X011155Y003194D02*
X011664Y003194D01*
X011573Y003035D02*
X011155Y003035D01*
X011155Y002877D02*
X011563Y002877D01*
X011743Y004145D02*
X011155Y004145D01*
X011155Y004304D02*
X011579Y004304D01*
X012265Y005889D02*
X012599Y005889D01*
X012548Y006048D02*
X012316Y006048D01*
X012297Y006206D02*
X012566Y006206D01*
X012669Y006365D02*
X012194Y006365D01*
X012075Y006523D02*
X012788Y006523D01*
X012596Y006682D02*
X012267Y006682D01*
X012316Y006840D02*
X012548Y006840D01*
X012568Y006999D02*
X012295Y006999D01*
X012189Y007157D02*
X012675Y007157D01*
X013072Y007316D02*
X014769Y007316D01*
X014928Y007474D02*
X013253Y007474D01*
X013173Y007157D02*
X013639Y007157D01*
X014295Y007157D02*
X014308Y007157D01*
X013986Y007791D02*
X013949Y007791D01*
X013949Y007950D02*
X013986Y007950D01*
X014913Y008901D02*
X015266Y008901D01*
X015818Y008901D02*
X015935Y008901D01*
X016568Y008267D02*
X016726Y008267D01*
X016704Y007791D02*
X016559Y007791D01*
X016681Y007633D02*
X015521Y007633D01*
X015571Y007474D02*
X016728Y007474D01*
X016909Y007316D02*
X015533Y007316D01*
X016193Y007157D02*
X016230Y007157D01*
X016230Y006999D02*
X016193Y006999D01*
X016193Y006840D02*
X016230Y006840D01*
X016230Y006682D02*
X016193Y006682D01*
X016193Y006523D02*
X016230Y006523D01*
X016520Y006523D02*
X016922Y006523D01*
X016983Y006498D02*
X017132Y006498D01*
X017271Y006555D01*
X017377Y006661D01*
X017434Y006799D01*
X017434Y006949D01*
X017377Y007087D01*
X017271Y007193D01*
X017132Y007251D01*
X016983Y007251D01*
X016845Y007193D01*
X016739Y007087D01*
X016681Y006949D01*
X016681Y006799D01*
X016739Y006661D01*
X016845Y006555D01*
X016983Y006498D01*
X017193Y006523D02*
X018014Y006523D01*
X017870Y006682D02*
X017385Y006682D01*
X017434Y006840D02*
X017823Y006840D01*
X017842Y006999D02*
X017413Y006999D01*
X017307Y007157D02*
X017933Y007157D01*
X018091Y007316D02*
X017206Y007316D01*
X017387Y007474D02*
X017909Y007474D01*
X017863Y007633D02*
X017434Y007633D01*
X017411Y007791D02*
X017826Y007791D01*
X017864Y008267D02*
X017389Y008267D01*
X017434Y008426D02*
X017823Y008426D01*
X017823Y008449D02*
X018238Y008449D01*
X018238Y008449D01*
X017823Y008449D01*
X017845Y008584D02*
X017409Y008584D01*
X017296Y008743D02*
X017944Y008743D01*
X018065Y008901D02*
X017231Y008901D01*
X017392Y009060D02*
X017905Y009060D01*
X017863Y009218D02*
X017434Y009218D01*
X017407Y009377D02*
X017815Y009377D01*
X017903Y009853D02*
X017394Y009853D01*
X017434Y010011D02*
X017863Y010011D01*
X017892Y010170D02*
X017404Y010170D01*
X017285Y010328D02*
X018011Y010328D01*
X018466Y010328D02*
X021946Y010328D01*
X021946Y010170D02*
X018586Y010170D01*
X018615Y010011D02*
X021946Y010011D01*
X021946Y009853D02*
X018575Y009853D01*
X018425Y009694D02*
X021946Y009694D01*
X021946Y009535D02*
X018472Y009535D01*
X018588Y009377D02*
X021946Y009377D01*
X021946Y009218D02*
X018615Y009218D01*
X018573Y009060D02*
X021946Y009060D01*
X021946Y008901D02*
X018412Y008901D01*
X018534Y008743D02*
X021946Y008743D01*
X021946Y008584D02*
X018632Y008584D01*
X018655Y008426D02*
X021946Y008426D01*
X021946Y008267D02*
X018613Y008267D01*
X018478Y008109D02*
X021946Y008109D01*
X021946Y007950D02*
X018482Y007950D01*
X018592Y007791D02*
X021946Y007791D01*
X021946Y007633D02*
X018615Y007633D01*
X018568Y007474D02*
X021946Y007474D01*
X021946Y007316D02*
X018387Y007316D01*
X018544Y007157D02*
X021946Y007157D01*
X021946Y006999D02*
X018636Y006999D01*
X018655Y006840D02*
X021946Y006840D01*
X021946Y006682D02*
X018608Y006682D01*
X018463Y006523D02*
X021946Y006523D01*
X021946Y006365D02*
X015758Y006365D01*
X015759Y006206D02*
X021946Y006206D01*
X021946Y006048D02*
X015742Y006048D01*
X015742Y006523D02*
X015902Y006523D01*
X016608Y006682D02*
X016730Y006682D01*
X016681Y006840D02*
X016608Y006840D01*
X016608Y006999D02*
X016702Y006999D01*
X016809Y007157D02*
X016586Y007157D01*
X018239Y006840D02*
X018239Y006840D01*
X018239Y006682D02*
X018239Y006682D01*
X018239Y006523D02*
X018239Y006523D01*
X016568Y005889D02*
X021946Y005889D01*
X021946Y005730D02*
X016568Y005730D01*
X016568Y005572D02*
X021946Y005572D01*
X021946Y005413D02*
X016543Y005413D01*
X016457Y005255D02*
X021946Y005255D01*
X021946Y005096D02*
X016496Y005096D01*
X016449Y004938D02*
X021946Y004938D01*
X021946Y004779D02*
X018504Y004779D01*
X018601Y004621D02*
X021946Y004621D01*
X021946Y004462D02*
X018615Y004462D01*
X018559Y004304D02*
X021946Y004304D01*
X021946Y004145D02*
X018336Y004145D01*
X018142Y004145D02*
X017254Y004145D01*
X017328Y003986D02*
X017914Y003986D01*
X017835Y003828D02*
X017422Y003828D01*
X017434Y003669D02*
X017826Y003669D01*
X017881Y003511D02*
X017376Y003511D01*
X016729Y003194D02*
X016608Y003194D01*
X016568Y002242D02*
X016651Y002242D01*
X016647Y002084D02*
X016568Y002084D01*
X016568Y001925D02*
X016706Y001925D01*
X016893Y001767D02*
X016470Y001767D01*
X016470Y001608D02*
X016771Y001608D01*
X016687Y001450D02*
X016543Y001450D01*
X016549Y001291D02*
X016681Y001291D01*
X016755Y001133D02*
X016443Y001133D01*
X016097Y001133D02*
X015909Y001133D01*
X015910Y000974D02*
X021946Y000974D01*
X021946Y000816D02*
X015910Y000816D01*
X015848Y000657D02*
X021946Y000657D01*
X021946Y000499D02*
X015779Y000499D01*
X015844Y001291D02*
X015991Y001291D01*
X015998Y001450D02*
X015769Y001450D01*
X015610Y001608D02*
X016070Y001608D01*
X016070Y001767D02*
X015307Y001767D01*
X015185Y001925D02*
X014993Y001925D01*
X014872Y001767D02*
X014792Y001767D01*
X014335Y001291D02*
X014316Y001291D01*
X014269Y001133D02*
X014158Y001133D01*
X014269Y000974D02*
X013999Y000974D01*
X014269Y000816D02*
X008232Y000816D01*
X008232Y000974D02*
X011454Y000974D01*
X014330Y000657D02*
X008232Y000657D01*
X008232Y000499D02*
X014399Y000499D01*
X017360Y001133D02*
X017937Y001133D01*
X018541Y001133D02*
X021946Y001133D01*
X021946Y001291D02*
X018615Y001291D01*
X018610Y001450D02*
X021946Y001450D01*
X021946Y001608D02*
X018525Y001608D01*
X018552Y002718D02*
X021946Y002718D01*
X021946Y002877D02*
X018615Y002877D01*
X018605Y003035D02*
X021946Y003035D01*
X021946Y003194D02*
X018514Y003194D01*
X018425Y003352D02*
X021946Y003352D01*
X021946Y003511D02*
X018597Y003511D01*
X018651Y003669D02*
X021946Y003669D01*
X021946Y003828D02*
X018643Y003828D01*
X018563Y003986D02*
X021946Y003986D01*
X017918Y004304D02*
X017418Y004304D01*
X017471Y004462D02*
X017863Y004462D01*
X017876Y004621D02*
X017460Y004621D01*
X017378Y004779D02*
X017974Y004779D01*
X017058Y004779D02*
X017057Y004779D01*
X017057Y004621D02*
X017058Y004621D01*
X016737Y004779D02*
X016555Y004779D01*
X016568Y004621D02*
X016655Y004621D01*
X016644Y004462D02*
X016568Y004462D01*
X016295Y004145D02*
X015818Y004145D01*
X015873Y005413D02*
X015880Y005413D01*
X013767Y006206D02*
X013282Y006206D01*
X013178Y006365D02*
X013767Y006365D01*
X013767Y006523D02*
X013059Y006523D01*
X014949Y009535D02*
X015229Y009535D01*
X015854Y009535D02*
X015899Y009535D01*
D13*
X015286Y007465D02*
X014695Y006874D01*
X014636Y006874D01*
X013967Y006874D02*
X012924Y006874D01*
D14*
X011940Y006874D02*
X010955Y005890D01*
X010955Y001756D01*
X011546Y001166D01*
X013908Y001166D01*
X014636Y001894D01*
X014636Y002150D01*
X015542Y002150D01*
X016211Y002150D02*
X016270Y002091D01*
X016270Y001363D01*
X017648Y001953D02*
X018239Y001363D01*
X017648Y001953D02*
X017648Y002150D01*
X017254Y002544D01*
X016329Y002544D01*
X015542Y003331D01*
X014892Y003922D02*
X014636Y004177D01*
X014636Y004512D01*
X014636Y005693D01*
X014636Y006146D01*
X013967Y005693D02*
X013967Y006874D01*
X014636Y008055D02*
X014636Y008114D01*
X014105Y008646D01*
X014636Y008705D02*
X014695Y008646D01*
X014636Y008705D02*
X014636Y009237D01*
X015542Y009237D01*
X016211Y009237D02*
X016270Y009237D01*
X016664Y009630D01*
X017845Y009630D01*
X018239Y009237D01*
X017845Y008055D02*
X018239Y007662D01*
X017845Y008055D02*
X016211Y008055D01*
X015542Y008055D02*
X014636Y008055D01*
X015542Y006874D02*
X015542Y006343D01*
X015483Y006284D01*
X015542Y006874D02*
X015542Y005693D01*
X016211Y005693D02*
X016211Y005103D01*
X016211Y004512D01*
X016999Y003725D01*
X017058Y003725D01*
X014636Y003331D02*
X014636Y002878D01*
X014499Y002740D01*
X013967Y003331D02*
X013967Y003744D01*
X013908Y003803D01*
D15*
X013908Y003803D03*
X014892Y003922D03*
X016211Y005103D03*
X015483Y006284D03*
X014636Y006146D03*
X015286Y007465D03*
X014695Y008646D03*
X014105Y008646D03*
X014499Y002740D03*
X016270Y001363D03*
M02*
