%
M48
M72
T01C0.0150
T02C0.0315
T03C0.1181
%
T01
X13908Y3803
X14892Y3922
X16211Y5103
X15483Y6284
X14636Y6146
X15286Y7465
X14695Y8646
X14105Y8646
X14499Y2740
X16270Y1363
T02
X17058Y1363
X17058Y2150
X17058Y2937
X17058Y3725
X17058Y4512
X18239Y4512
X18239Y3725
X18239Y2937
X18239Y2150
X18239Y1363
X12924Y2150
X11940Y2150
X11940Y2937
X12924Y2937
X12924Y3725
X12924Y4512
X11940Y4512
X11940Y3725
X11940Y5300
X12924Y5300
X12924Y6087
X11940Y6087
X11940Y6874
X12924Y6874
X12924Y7662
X11940Y7662
X11940Y8449
X12924Y8449
X12924Y9237
X11940Y9237
X17058Y9237
X17058Y10024
X18239Y10024
X18239Y9237
X18239Y8449
X18239Y7662
X18239Y6874
X17058Y6874
X17058Y7662
X17058Y8449
T03
X8987Y3725
X8987Y7662
X15089Y10418
X15089Y969
M30
