G75*
G70*
%OFA0B0*%
%FSLAX24Y24*%
%IPPOS*%
%LPD*%
%AMOC8*
5,1,8,0,0,1.08239X$1,22.5*
%
%ADD10C,0.0060*%
%ADD11C,0.0050*%
D10*
X013631Y004148D02*
X014272Y004575D01*
X013951Y004793D02*
X013951Y005220D01*
X013951Y005437D02*
X013845Y005651D01*
X013845Y005758D01*
X013951Y005864D01*
X014165Y005864D01*
X014272Y005758D01*
X014272Y005544D01*
X014165Y005437D01*
X013951Y005437D02*
X013631Y005437D01*
X013631Y005864D01*
X013738Y006082D02*
X013631Y006189D01*
X013631Y006402D01*
X013738Y006509D01*
X014165Y006082D01*
X014272Y006189D01*
X014272Y006402D01*
X014165Y006509D01*
X013738Y006509D01*
X013738Y006727D02*
X013845Y006727D01*
X013951Y006833D01*
X013951Y007154D01*
X013738Y007154D02*
X013631Y007047D01*
X013631Y006833D01*
X013738Y006727D01*
X014165Y006727D02*
X014272Y006833D01*
X014272Y007047D01*
X014165Y007154D01*
X013738Y007154D01*
X013738Y006082D02*
X014165Y006082D01*
X015600Y006904D02*
X016240Y007331D01*
X015920Y007549D02*
X015920Y007976D01*
X015920Y008193D02*
X015813Y008407D01*
X015813Y008514D01*
X015920Y008620D01*
X016134Y008620D01*
X016240Y008514D01*
X016240Y008300D01*
X016134Y008193D01*
X015920Y008193D02*
X015600Y008193D01*
X015600Y008620D01*
X015706Y008838D02*
X015600Y008945D01*
X015600Y009158D01*
X015706Y009265D01*
X016134Y008838D01*
X016240Y008945D01*
X016240Y009158D01*
X016134Y009265D01*
X015706Y009265D01*
X015706Y009482D02*
X015600Y009589D01*
X015600Y009803D01*
X015706Y009909D01*
X016134Y009482D01*
X016240Y009589D01*
X016240Y009803D01*
X016134Y009909D01*
X015706Y009909D01*
X015706Y010127D02*
X015600Y010234D01*
X015600Y010447D01*
X015706Y010554D01*
X015813Y010554D01*
X015920Y010447D01*
X016027Y010554D01*
X016134Y010554D01*
X016240Y010447D01*
X016240Y010234D01*
X016134Y010127D01*
X015920Y010340D02*
X015920Y010447D01*
X016134Y009482D02*
X015706Y009482D01*
X015706Y008838D02*
X016134Y008838D01*
X015600Y007331D02*
X016240Y006904D01*
X016240Y005042D02*
X016240Y004615D01*
X015813Y005042D01*
X015706Y005042D01*
X015600Y004935D01*
X015600Y004722D01*
X015706Y004615D01*
X015706Y004398D02*
X016134Y003971D01*
X016240Y004077D01*
X016240Y004291D01*
X016134Y004398D01*
X015706Y004398D01*
X015600Y004291D01*
X015600Y004077D01*
X015706Y003971D01*
X016134Y003971D01*
X016134Y003753D02*
X016240Y003646D01*
X016240Y003433D01*
X016134Y003326D01*
X015706Y003753D01*
X016134Y003753D01*
X015706Y003753D02*
X015600Y003646D01*
X015600Y003433D01*
X015706Y003326D01*
X016134Y003326D01*
X016134Y003109D02*
X015920Y003109D01*
X015813Y003002D01*
X015813Y002895D01*
X015920Y002682D01*
X015600Y002682D01*
X015600Y003109D01*
X016134Y003109D02*
X016240Y003002D01*
X016240Y002788D01*
X016134Y002682D01*
X015920Y002464D02*
X015920Y002037D01*
X016240Y001820D02*
X015600Y001393D01*
X015600Y001820D02*
X016240Y001393D01*
X014272Y004148D02*
X013631Y004575D01*
D11*
X008317Y004512D02*
X008121Y004512D01*
X008121Y006874D01*
X008317Y006874D01*
X008317Y010300D01*
X013829Y010300D01*
X013829Y009866D01*
X011428Y009866D01*
X011428Y001599D01*
X013829Y001599D01*
X013829Y001087D01*
X008317Y001087D01*
X008317Y004512D01*
X016349Y005063D02*
X018751Y005063D01*
X018751Y000811D01*
X016349Y000811D01*
X016349Y000378D01*
X021861Y000378D01*
X021861Y001756D01*
X022058Y001756D01*
X022058Y004118D01*
X021861Y004118D01*
X021861Y005575D01*
X016349Y005575D01*
X016349Y005063D01*
X016349Y005890D02*
X016349Y006323D01*
X018751Y006323D01*
X018751Y010575D01*
X016349Y010575D01*
X016349Y011087D01*
X021861Y011087D01*
X021861Y009630D01*
X022058Y009630D01*
X022058Y007268D01*
X021861Y007268D01*
X021861Y005890D01*
X016349Y005890D01*
M02*
