G75*
G70*
%OFA0B0*%
%FSLAX24Y24*%
%IPPOS*%
%LPD*%
%AMOC8*
5,1,8,0,0,1.08239X$1,22.5*
%
%ADD10C,0.0000*%
%ADD11C,0.0472*%
%ADD12C,0.0160*%
%ADD13C,0.0290*%
%ADD14C,0.0120*%
%ADD15C,0.0240*%
D10*
X008003Y000181D02*
X008003Y011205D01*
X022176Y011205D01*
X022176Y000181D01*
X008003Y000181D01*
X014498Y000969D02*
X014500Y001017D01*
X014506Y001065D01*
X014516Y001112D01*
X014529Y001158D01*
X014547Y001203D01*
X014567Y001247D01*
X014592Y001289D01*
X014620Y001328D01*
X014650Y001365D01*
X014684Y001399D01*
X014721Y001431D01*
X014759Y001460D01*
X014800Y001485D01*
X014843Y001507D01*
X014888Y001525D01*
X014934Y001539D01*
X014981Y001550D01*
X015029Y001557D01*
X015077Y001560D01*
X015125Y001559D01*
X015173Y001554D01*
X015221Y001545D01*
X015267Y001533D01*
X015312Y001516D01*
X015356Y001496D01*
X015398Y001473D01*
X015438Y001446D01*
X015476Y001416D01*
X015511Y001383D01*
X015543Y001347D01*
X015573Y001309D01*
X015599Y001268D01*
X015621Y001225D01*
X015641Y001181D01*
X015656Y001136D01*
X015668Y001089D01*
X015676Y001041D01*
X015680Y000993D01*
X015680Y000945D01*
X015676Y000897D01*
X015668Y000849D01*
X015656Y000802D01*
X015641Y000757D01*
X015621Y000713D01*
X015599Y000670D01*
X015573Y000629D01*
X015543Y000591D01*
X015511Y000555D01*
X015476Y000522D01*
X015438Y000492D01*
X015398Y000465D01*
X015356Y000442D01*
X015312Y000422D01*
X015267Y000405D01*
X015221Y000393D01*
X015173Y000384D01*
X015125Y000379D01*
X015077Y000378D01*
X015029Y000381D01*
X014981Y000388D01*
X014934Y000399D01*
X014888Y000413D01*
X014843Y000431D01*
X014800Y000453D01*
X014759Y000478D01*
X014721Y000507D01*
X014684Y000539D01*
X014650Y000573D01*
X014620Y000610D01*
X014592Y000649D01*
X014567Y000691D01*
X014547Y000735D01*
X014529Y000780D01*
X014516Y000826D01*
X014506Y000873D01*
X014500Y000921D01*
X014498Y000969D01*
X014498Y010418D02*
X014500Y010466D01*
X014506Y010514D01*
X014516Y010561D01*
X014529Y010607D01*
X014547Y010652D01*
X014567Y010696D01*
X014592Y010738D01*
X014620Y010777D01*
X014650Y010814D01*
X014684Y010848D01*
X014721Y010880D01*
X014759Y010909D01*
X014800Y010934D01*
X014843Y010956D01*
X014888Y010974D01*
X014934Y010988D01*
X014981Y010999D01*
X015029Y011006D01*
X015077Y011009D01*
X015125Y011008D01*
X015173Y011003D01*
X015221Y010994D01*
X015267Y010982D01*
X015312Y010965D01*
X015356Y010945D01*
X015398Y010922D01*
X015438Y010895D01*
X015476Y010865D01*
X015511Y010832D01*
X015543Y010796D01*
X015573Y010758D01*
X015599Y010717D01*
X015621Y010674D01*
X015641Y010630D01*
X015656Y010585D01*
X015668Y010538D01*
X015676Y010490D01*
X015680Y010442D01*
X015680Y010394D01*
X015676Y010346D01*
X015668Y010298D01*
X015656Y010251D01*
X015641Y010206D01*
X015621Y010162D01*
X015599Y010119D01*
X015573Y010078D01*
X015543Y010040D01*
X015511Y010004D01*
X015476Y009971D01*
X015438Y009941D01*
X015398Y009914D01*
X015356Y009891D01*
X015312Y009871D01*
X015267Y009854D01*
X015221Y009842D01*
X015173Y009833D01*
X015125Y009828D01*
X015077Y009827D01*
X015029Y009830D01*
X014981Y009837D01*
X014934Y009848D01*
X014888Y009862D01*
X014843Y009880D01*
X014800Y009902D01*
X014759Y009927D01*
X014721Y009956D01*
X014684Y009988D01*
X014650Y010022D01*
X014620Y010059D01*
X014592Y010098D01*
X014567Y010140D01*
X014547Y010184D01*
X014529Y010229D01*
X014516Y010275D01*
X014506Y010322D01*
X014500Y010370D01*
X014498Y010418D01*
D11*
X012924Y009237D03*
X011940Y009237D03*
X011940Y008449D03*
X012924Y008449D03*
X012924Y007662D03*
X011940Y007662D03*
X011940Y006874D03*
X012924Y006874D03*
X012924Y006087D03*
X011940Y006087D03*
X011940Y005300D03*
X012924Y005300D03*
X012924Y004512D03*
X012924Y003725D03*
X011940Y003725D03*
X011940Y004512D03*
X011940Y002937D03*
X012924Y002937D03*
X012924Y002150D03*
X011940Y002150D03*
X017058Y002150D03*
X017058Y002937D03*
X017058Y003725D03*
X017058Y004512D03*
X018239Y004512D03*
X018239Y003725D03*
X018239Y002937D03*
X018239Y002150D03*
X018239Y001363D03*
X017058Y001363D03*
X017058Y006874D03*
X017058Y007662D03*
X017058Y008449D03*
X017058Y009237D03*
X017058Y010024D03*
X018239Y010024D03*
X018239Y009237D03*
X018239Y008449D03*
X018239Y007662D03*
X018239Y006874D03*
D12*
X017911Y006682D02*
X017385Y006682D01*
X017377Y006661D02*
X017434Y006799D01*
X017434Y006949D01*
X017377Y007087D01*
X017271Y007193D01*
X017132Y007251D01*
X016983Y007251D01*
X016845Y007193D01*
X016739Y007087D01*
X016681Y006949D01*
X016681Y006799D01*
X016739Y006661D01*
X016845Y006555D01*
X016983Y006498D01*
X017132Y006498D01*
X017271Y006555D01*
X017377Y006661D01*
X017434Y006840D02*
X017863Y006840D01*
X017863Y006799D02*
X017920Y006661D01*
X018026Y006555D01*
X018164Y006498D01*
X018314Y006498D01*
X018452Y006555D01*
X018558Y006661D01*
X018615Y006799D01*
X018615Y006949D01*
X018558Y007087D01*
X018452Y007193D01*
X018314Y007251D01*
X018164Y007251D01*
X018026Y007193D01*
X017920Y007087D01*
X017863Y006949D01*
X017863Y006799D01*
X017883Y006999D02*
X017413Y006999D01*
X017307Y007157D02*
X017990Y007157D01*
X018091Y007316D02*
X017206Y007316D01*
X017271Y007343D02*
X017132Y007286D01*
X016983Y007286D01*
X016845Y007343D01*
X016739Y007449D01*
X016681Y007587D01*
X016681Y007737D01*
X016739Y007875D01*
X016845Y007981D01*
X016983Y008038D01*
X017132Y008038D01*
X017271Y007981D01*
X017377Y007875D01*
X017434Y007737D01*
X017434Y007587D01*
X017377Y007449D01*
X017271Y007343D01*
X017387Y007474D02*
X017909Y007474D01*
X017920Y007449D02*
X018026Y007343D01*
X018164Y007286D01*
X018314Y007286D01*
X018452Y007343D01*
X018558Y007449D01*
X018615Y007587D01*
X018615Y007737D01*
X018558Y007875D01*
X018452Y007981D01*
X018314Y008038D01*
X018164Y008038D01*
X018026Y007981D01*
X017920Y007875D01*
X017863Y007737D01*
X017863Y007587D01*
X017920Y007449D01*
X017863Y007633D02*
X017434Y007633D01*
X017411Y007791D02*
X017885Y007791D01*
X017995Y007950D02*
X017301Y007950D01*
X017219Y008109D02*
X018078Y008109D01*
X018026Y008130D02*
X018164Y008073D01*
X018314Y008073D01*
X018452Y008130D01*
X018558Y008236D01*
X018615Y008374D01*
X018615Y008524D01*
X018558Y008662D01*
X018452Y008768D01*
X018314Y008825D01*
X018164Y008825D01*
X018026Y008768D01*
X017920Y008662D01*
X017863Y008524D01*
X017863Y008374D01*
X017920Y008236D01*
X018026Y008130D01*
X017907Y008267D02*
X017389Y008267D01*
X017377Y008236D02*
X017434Y008374D01*
X017434Y008524D01*
X017377Y008662D01*
X017271Y008768D01*
X017132Y008825D01*
X016983Y008825D01*
X016845Y008768D01*
X016739Y008662D01*
X016681Y008524D01*
X016681Y008374D01*
X016739Y008236D01*
X016845Y008130D01*
X016983Y008073D01*
X017132Y008073D01*
X017271Y008130D01*
X017377Y008236D01*
X017434Y008426D02*
X017863Y008426D01*
X017888Y008584D02*
X017409Y008584D01*
X017296Y008743D02*
X018000Y008743D01*
X018065Y008901D02*
X017231Y008901D01*
X017271Y008918D02*
X017377Y009023D01*
X017434Y009162D01*
X017434Y009311D01*
X017377Y009450D01*
X017271Y009555D01*
X017132Y009613D01*
X017122Y009613D01*
X017155Y009618D01*
X017217Y009638D01*
X017276Y009668D01*
X017329Y009706D01*
X017375Y009753D01*
X017414Y009806D01*
X017443Y009864D01*
X017464Y009926D01*
X017474Y009991D01*
X017474Y010024D01*
X017474Y010057D01*
X017464Y010121D01*
X017443Y010184D01*
X017414Y010242D01*
X017375Y010295D01*
X017329Y010341D01*
X017276Y010380D01*
X017217Y010410D01*
X017155Y010430D01*
X017090Y010440D01*
X017058Y010440D01*
X017058Y010024D01*
X017474Y010024D01*
X017058Y010024D01*
X017058Y010024D01*
X017057Y010024D01*
X017057Y010024D01*
X016641Y010024D01*
X016641Y010057D01*
X016652Y010121D01*
X016672Y010184D01*
X016702Y010242D01*
X016740Y010295D01*
X016786Y010341D01*
X016839Y010380D01*
X016898Y010410D01*
X016960Y010430D01*
X017025Y010440D01*
X017057Y010440D01*
X017057Y010024D01*
X016641Y010024D01*
X016641Y009991D01*
X016652Y009926D01*
X016672Y009864D01*
X016702Y009806D01*
X016740Y009753D01*
X016786Y009706D01*
X016839Y009668D01*
X016898Y009638D01*
X016960Y009618D01*
X016993Y009613D01*
X016983Y009613D01*
X016845Y009555D01*
X016739Y009450D01*
X016681Y009311D01*
X016681Y009162D01*
X016739Y009023D01*
X016845Y008918D01*
X016983Y008860D01*
X017132Y008860D01*
X017271Y008918D01*
X017392Y009060D02*
X017905Y009060D01*
X017920Y009023D02*
X018026Y008918D01*
X018164Y008860D01*
X018314Y008860D01*
X018452Y008918D01*
X018558Y009023D01*
X018615Y009162D01*
X018615Y009311D01*
X018558Y009450D01*
X018452Y009555D01*
X018314Y009613D01*
X018303Y009613D01*
X018336Y009618D01*
X018399Y009638D01*
X018457Y009668D01*
X018510Y009706D01*
X018556Y009753D01*
X018595Y009806D01*
X018624Y009864D01*
X018645Y009926D01*
X018655Y009991D01*
X018655Y010024D01*
X018655Y010057D01*
X018645Y010121D01*
X018624Y010184D01*
X018595Y010242D01*
X018556Y010295D01*
X018510Y010341D01*
X018457Y010380D01*
X018399Y010410D01*
X018336Y010430D01*
X018271Y010440D01*
X018239Y010440D01*
X018239Y010024D01*
X018655Y010024D01*
X018239Y010024D01*
X018239Y010024D01*
X018239Y010024D01*
X018239Y010440D01*
X018206Y010440D01*
X018141Y010430D01*
X018079Y010410D01*
X018021Y010380D01*
X017968Y010341D01*
X017921Y010295D01*
X017883Y010242D01*
X017853Y010184D01*
X017833Y010121D01*
X017823Y010057D01*
X017823Y010024D01*
X018238Y010024D01*
X018238Y010024D01*
X017823Y010024D01*
X017823Y009991D01*
X017833Y009926D01*
X017853Y009864D01*
X017883Y009806D01*
X017921Y009753D01*
X017968Y009706D01*
X018021Y009668D01*
X018079Y009638D01*
X018141Y009618D01*
X018175Y009613D01*
X018164Y009613D01*
X018026Y009555D01*
X017920Y009450D01*
X017863Y009311D01*
X017863Y009162D01*
X017920Y009023D01*
X017863Y009218D02*
X017434Y009218D01*
X017407Y009377D02*
X017890Y009377D01*
X018006Y009535D02*
X017291Y009535D01*
X017312Y009694D02*
X017985Y009694D01*
X017859Y009853D02*
X017437Y009853D01*
X017474Y010011D02*
X017823Y010011D01*
X017848Y010170D02*
X017448Y010170D01*
X017342Y010328D02*
X017954Y010328D01*
X018239Y010328D02*
X018239Y010328D01*
X018239Y010170D02*
X018239Y010170D01*
X018523Y010328D02*
X021946Y010328D01*
X021946Y010170D02*
X018629Y010170D01*
X018655Y010011D02*
X021946Y010011D01*
X021946Y009853D02*
X018619Y009853D01*
X018493Y009694D02*
X021946Y009694D01*
X021946Y009535D02*
X018472Y009535D01*
X018588Y009377D02*
X021946Y009377D01*
X021946Y009218D02*
X018615Y009218D01*
X018573Y009060D02*
X021946Y009060D01*
X021946Y008901D02*
X018412Y008901D01*
X018477Y008743D02*
X021946Y008743D01*
X021946Y008584D02*
X018590Y008584D01*
X018615Y008426D02*
X021946Y008426D01*
X021946Y008267D02*
X018571Y008267D01*
X018400Y008109D02*
X021946Y008109D01*
X021946Y007950D02*
X018482Y007950D01*
X018592Y007791D02*
X021946Y007791D01*
X021946Y007633D02*
X018615Y007633D01*
X018568Y007474D02*
X021946Y007474D01*
X021946Y007316D02*
X018387Y007316D01*
X018488Y007157D02*
X021946Y007157D01*
X021946Y006999D02*
X018594Y006999D01*
X018615Y006840D02*
X021946Y006840D01*
X021946Y006682D02*
X018566Y006682D01*
X018374Y006523D02*
X021946Y006523D01*
X021946Y006365D02*
X015758Y006365D01*
X015768Y006340D02*
X015724Y006445D01*
X015644Y006525D01*
X015540Y006569D01*
X015426Y006569D01*
X015321Y006525D01*
X015286Y006490D01*
X015286Y009611D01*
X015554Y009722D01*
X015785Y009953D01*
X015910Y010254D01*
X015910Y010581D01*
X015785Y010882D01*
X015692Y010975D01*
X021946Y010975D01*
X021946Y000411D01*
X015692Y000411D01*
X015785Y000504D01*
X015910Y000806D01*
X015910Y001132D01*
X015785Y001434D01*
X015554Y001664D01*
X015286Y001775D01*
X015286Y003722D01*
X016187Y003722D01*
X016749Y003160D01*
X016739Y003150D01*
X016681Y003012D01*
X016681Y002862D01*
X016739Y002724D01*
X016845Y002618D01*
X016983Y002561D01*
X017132Y002561D01*
X017271Y002618D01*
X017377Y002724D01*
X017434Y002862D01*
X017434Y003012D01*
X017396Y003104D01*
X017448Y003051D01*
X017448Y002658D01*
X017565Y002540D01*
X017868Y002238D01*
X017863Y002225D01*
X017863Y002075D01*
X017920Y001937D01*
X018026Y001831D01*
X018164Y001774D01*
X018314Y001774D01*
X018452Y001831D01*
X018558Y001937D01*
X018615Y002075D01*
X018615Y002225D01*
X018577Y002316D01*
X018629Y002264D01*
X018629Y001052D01*
X018550Y000972D01*
X016944Y000972D01*
X016891Y001024D01*
X016983Y000986D01*
X017132Y000986D01*
X017271Y001044D01*
X017377Y001149D01*
X017434Y001288D01*
X017434Y001437D01*
X017377Y001576D01*
X017271Y001681D01*
X017132Y001739D01*
X016983Y001739D01*
X016845Y001681D01*
X016739Y001576D01*
X016681Y001437D01*
X016681Y001288D01*
X016719Y001196D01*
X016555Y001360D01*
X016555Y001419D01*
X016512Y001524D01*
X016432Y001604D01*
X016327Y001647D01*
X016214Y001647D01*
X016109Y001604D01*
X016029Y001524D01*
X015985Y001419D01*
X015985Y001306D01*
X016029Y001201D01*
X016109Y001121D01*
X016214Y001078D01*
X016272Y001078D01*
X016778Y000572D01*
X016944Y000572D01*
X018715Y000572D01*
X018832Y000689D01*
X019029Y000886D01*
X019029Y001052D01*
X019029Y002430D01*
X018912Y002547D01*
X018609Y002849D01*
X018615Y002862D01*
X018615Y003012D01*
X018558Y003150D01*
X018452Y003256D01*
X018314Y003314D01*
X018164Y003314D01*
X018026Y003256D01*
X017920Y003150D01*
X017863Y003012D01*
X017863Y002862D01*
X017900Y002771D01*
X017848Y002823D01*
X017848Y003051D01*
X017848Y003217D01*
X017651Y003414D01*
X017534Y003531D01*
X017385Y003531D01*
X017434Y003650D01*
X017434Y003800D01*
X017377Y003938D01*
X017271Y004044D01*
X017132Y004101D01*
X016983Y004101D01*
X016845Y004044D01*
X016739Y003938D01*
X016681Y003800D01*
X016681Y003793D01*
X016470Y004004D01*
X016353Y004122D01*
X015286Y004122D01*
X015286Y004903D01*
X016008Y004903D01*
X016050Y004861D01*
X016154Y004818D01*
X016268Y004818D01*
X016373Y004861D01*
X016453Y004941D01*
X016496Y005046D01*
X016496Y005159D01*
X016453Y005264D01*
X016373Y005344D01*
X016268Y005388D01*
X016154Y005388D01*
X016050Y005344D01*
X016008Y005303D01*
X015286Y005303D01*
X015286Y005804D01*
X015481Y005999D01*
X015540Y005999D01*
X015644Y006042D01*
X015724Y006122D01*
X015768Y006227D01*
X015768Y006340D01*
X015759Y006206D02*
X021946Y006206D01*
X021946Y006048D02*
X015650Y006048D01*
X015371Y005889D02*
X021946Y005889D01*
X021946Y005730D02*
X015286Y005730D01*
X015286Y005572D02*
X021946Y005572D01*
X021946Y005413D02*
X015286Y005413D01*
X014695Y005413D02*
X013880Y005413D01*
X013991Y005303D02*
X013400Y005893D01*
X013251Y005893D01*
X013300Y006012D01*
X013300Y006162D01*
X013243Y006300D01*
X013137Y006406D01*
X012999Y006463D01*
X012988Y006463D01*
X013021Y006468D01*
X013084Y006489D01*
X013142Y006518D01*
X013195Y006557D01*
X013241Y006603D01*
X013280Y006656D01*
X013309Y006715D01*
X013330Y006777D01*
X013340Y006842D01*
X013340Y006874D01*
X012924Y006874D01*
X012924Y006874D01*
X013340Y006874D01*
X013340Y006907D01*
X013330Y006972D01*
X013309Y007034D01*
X013292Y007068D01*
X013431Y007068D01*
X014351Y006148D01*
X014351Y006089D01*
X014395Y005985D01*
X014475Y005904D01*
X014580Y005861D01*
X014693Y005861D01*
X014695Y005862D01*
X014695Y005303D01*
X013991Y005303D01*
X013722Y005572D02*
X014695Y005572D01*
X014695Y005730D02*
X013563Y005730D01*
X013405Y005889D02*
X014512Y005889D01*
X014369Y006048D02*
X013300Y006048D01*
X013282Y006206D02*
X014293Y006206D01*
X014135Y006365D02*
X013178Y006365D01*
X013149Y006523D02*
X013976Y006523D01*
X013818Y006682D02*
X013293Y006682D01*
X013340Y006840D02*
X013659Y006840D01*
X013501Y006999D02*
X013321Y006999D01*
X012923Y006874D02*
X012923Y006874D01*
X012508Y006874D01*
X012508Y006842D01*
X012518Y006777D01*
X012538Y006715D01*
X012568Y006656D01*
X012606Y006603D01*
X012653Y006557D01*
X012706Y006518D01*
X012764Y006489D01*
X012826Y006468D01*
X012860Y006463D01*
X012849Y006463D01*
X012711Y006406D01*
X012605Y006300D01*
X012548Y006162D01*
X012548Y006012D01*
X012597Y005893D01*
X012416Y005893D01*
X012310Y005999D01*
X012316Y006012D01*
X012316Y006162D01*
X012258Y006300D01*
X012153Y006406D01*
X012014Y006463D01*
X011865Y006463D01*
X011726Y006406D01*
X011621Y006300D01*
X011563Y006162D01*
X011563Y006012D01*
X011621Y005874D01*
X011726Y005768D01*
X011865Y005711D01*
X012014Y005711D01*
X012027Y005716D01*
X012106Y005638D01*
X012014Y005676D01*
X011865Y005676D01*
X011726Y005618D01*
X011621Y005513D01*
X011563Y005374D01*
X011563Y005225D01*
X011621Y005086D01*
X011726Y004981D01*
X011865Y004923D01*
X012014Y004923D01*
X012153Y004981D01*
X012258Y005086D01*
X012316Y005225D01*
X012316Y005374D01*
X012266Y005493D01*
X012416Y005493D01*
X012597Y005493D01*
X012548Y005374D01*
X012548Y005225D01*
X012605Y005086D01*
X012711Y004981D01*
X012849Y004923D01*
X012999Y004923D01*
X013137Y004981D01*
X013243Y005086D01*
X013300Y005225D01*
X013300Y005374D01*
X013262Y005466D01*
X013825Y004903D01*
X013991Y004903D01*
X014695Y004903D01*
X014695Y004128D01*
X014651Y004083D01*
X014607Y003978D01*
X014607Y003865D01*
X014651Y003760D01*
X014695Y003715D01*
X014695Y002947D01*
X014660Y002982D01*
X014555Y003025D01*
X014442Y003025D01*
X014337Y002982D01*
X014296Y002940D01*
X013597Y002940D01*
X013431Y002940D01*
X013262Y002771D01*
X013300Y002862D01*
X013300Y003012D01*
X013243Y003150D01*
X013137Y003256D01*
X012999Y003314D01*
X012849Y003314D01*
X012711Y003256D01*
X012605Y003150D01*
X012548Y003012D01*
X012548Y002862D01*
X012597Y002744D01*
X012266Y002744D01*
X012316Y002862D01*
X012316Y003012D01*
X012258Y003150D01*
X012153Y003256D01*
X012014Y003314D01*
X011865Y003314D01*
X011726Y003256D01*
X011621Y003150D01*
X011563Y003012D01*
X011563Y002862D01*
X011601Y002771D01*
X011549Y002823D01*
X011549Y008563D01*
X011601Y008615D01*
X011563Y008524D01*
X011563Y008374D01*
X011621Y008236D01*
X011726Y008130D01*
X011865Y008073D01*
X012014Y008073D01*
X012027Y008078D01*
X012106Y008000D01*
X012014Y008038D01*
X011865Y008038D01*
X011726Y007981D01*
X011621Y007875D01*
X011563Y007737D01*
X011563Y007587D01*
X011621Y007449D01*
X011726Y007343D01*
X011865Y007286D01*
X012014Y007286D01*
X012153Y007343D01*
X012232Y007422D01*
X012232Y007382D01*
X012349Y007265D01*
X012546Y007068D01*
X012555Y007068D01*
X012538Y007034D01*
X012518Y006972D01*
X012508Y006907D01*
X012508Y006874D01*
X012923Y006874D01*
X012555Y006682D02*
X012267Y006682D01*
X012258Y006661D02*
X012316Y006799D01*
X012316Y006949D01*
X012258Y007087D01*
X012153Y007193D01*
X012014Y007251D01*
X011865Y007251D01*
X011726Y007193D01*
X011621Y007087D01*
X011563Y006949D01*
X011563Y006799D01*
X011621Y006661D01*
X011726Y006555D01*
X011865Y006498D01*
X012014Y006498D01*
X012153Y006555D01*
X012258Y006661D01*
X012316Y006840D02*
X012508Y006840D01*
X012527Y006999D02*
X012295Y006999D01*
X012189Y007157D02*
X012456Y007157D01*
X012298Y007316D02*
X012088Y007316D01*
X011791Y007316D02*
X011549Y007316D01*
X011549Y007474D02*
X011610Y007474D01*
X011563Y007633D02*
X011549Y007633D01*
X011549Y007791D02*
X011586Y007791D01*
X011549Y007950D02*
X011696Y007950D01*
X011779Y008109D02*
X011549Y008109D01*
X011549Y008267D02*
X011608Y008267D01*
X011563Y008426D02*
X011549Y008426D01*
X011570Y008584D02*
X011588Y008584D01*
X011549Y007157D02*
X011691Y007157D01*
X011584Y006999D02*
X011549Y006999D01*
X011549Y006840D02*
X011563Y006840D01*
X011549Y006682D02*
X011612Y006682D01*
X011549Y006523D02*
X011804Y006523D01*
X011685Y006365D02*
X011549Y006365D01*
X011549Y006206D02*
X011582Y006206D01*
X011563Y006048D02*
X011549Y006048D01*
X011549Y005889D02*
X011614Y005889D01*
X011549Y005730D02*
X011817Y005730D01*
X011680Y005572D02*
X011549Y005572D01*
X011549Y005413D02*
X011579Y005413D01*
X011563Y005255D02*
X011549Y005255D01*
X011549Y005096D02*
X011616Y005096D01*
X011549Y004938D02*
X011830Y004938D01*
X011865Y004888D02*
X011726Y004831D01*
X011621Y004725D01*
X011563Y004587D01*
X011563Y004437D01*
X011621Y004299D01*
X011726Y004193D01*
X011865Y004136D01*
X012014Y004136D01*
X012153Y004193D01*
X012258Y004299D01*
X012316Y004437D01*
X012316Y004587D01*
X012258Y004725D01*
X012153Y004831D01*
X012014Y004888D01*
X011865Y004888D01*
X012049Y004938D02*
X012814Y004938D01*
X012849Y004888D02*
X012711Y004831D01*
X012605Y004725D01*
X012548Y004587D01*
X012548Y004437D01*
X012605Y004299D01*
X012711Y004193D01*
X012849Y004136D01*
X012999Y004136D01*
X013137Y004193D01*
X013243Y004299D01*
X013300Y004437D01*
X013300Y004587D01*
X013243Y004725D01*
X013137Y004831D01*
X012999Y004888D01*
X012849Y004888D01*
X013033Y004938D02*
X013790Y004938D01*
X013632Y005096D02*
X013247Y005096D01*
X013300Y005255D02*
X013473Y005255D01*
X013314Y005413D02*
X013284Y005413D01*
X012564Y005413D02*
X012300Y005413D01*
X012316Y005255D02*
X012548Y005255D01*
X012601Y005096D02*
X012262Y005096D01*
X012204Y004779D02*
X012659Y004779D01*
X012562Y004621D02*
X012302Y004621D01*
X012316Y004462D02*
X012548Y004462D01*
X012603Y004304D02*
X012260Y004304D01*
X012036Y004145D02*
X012827Y004145D01*
X012849Y004101D02*
X012711Y004044D01*
X012605Y003938D01*
X012548Y003800D01*
X012548Y003650D01*
X012605Y003512D01*
X012711Y003406D01*
X012849Y003349D01*
X012999Y003349D01*
X013137Y003406D01*
X013243Y003512D01*
X013300Y003650D01*
X013300Y003800D01*
X013243Y003938D01*
X013137Y004044D01*
X012999Y004101D01*
X012849Y004101D01*
X013021Y004145D02*
X014695Y004145D01*
X014695Y004304D02*
X013245Y004304D01*
X013300Y004462D02*
X014695Y004462D01*
X014695Y004621D02*
X013286Y004621D01*
X013189Y004779D02*
X014695Y004779D01*
X015286Y004779D02*
X016793Y004779D01*
X016845Y004831D02*
X016739Y004725D01*
X016681Y004587D01*
X016681Y004437D01*
X016739Y004299D01*
X016845Y004193D01*
X016983Y004136D01*
X017132Y004136D01*
X017271Y004193D01*
X017377Y004299D01*
X017434Y004437D01*
X017434Y004587D01*
X017377Y004725D01*
X017271Y004831D01*
X017132Y004888D01*
X016983Y004888D01*
X016845Y004831D01*
X016695Y004621D02*
X015286Y004621D01*
X015286Y004462D02*
X016681Y004462D01*
X016737Y004304D02*
X015286Y004304D01*
X015286Y004145D02*
X016961Y004145D01*
X017154Y004145D02*
X018042Y004145D01*
X018021Y004156D02*
X018079Y004126D01*
X018141Y004106D01*
X018174Y004101D01*
X018164Y004101D01*
X018026Y004044D01*
X017920Y003938D01*
X017863Y003800D01*
X017863Y003650D01*
X017920Y003512D01*
X018026Y003406D01*
X018164Y003349D01*
X018314Y003349D01*
X018452Y003406D01*
X018558Y003512D01*
X018615Y003650D01*
X018615Y003800D01*
X018558Y003938D01*
X018452Y004044D01*
X018314Y004101D01*
X018303Y004101D01*
X018336Y004106D01*
X018399Y004126D01*
X018457Y004156D01*
X018510Y004195D01*
X018556Y004241D01*
X018595Y004294D01*
X018624Y004352D01*
X018645Y004415D01*
X018655Y004479D01*
X018655Y004512D01*
X018239Y004512D01*
X018239Y004512D01*
X018655Y004512D01*
X018655Y004545D01*
X018645Y004610D01*
X018624Y004672D01*
X018595Y004730D01*
X018556Y004783D01*
X018510Y004830D01*
X018457Y004868D01*
X018399Y004898D01*
X018336Y004918D01*
X018271Y004928D01*
X018239Y004928D01*
X018239Y004513D01*
X018239Y004513D01*
X018239Y004928D01*
X018206Y004928D01*
X018141Y004918D01*
X018079Y004898D01*
X018021Y004868D01*
X017968Y004830D01*
X017921Y004783D01*
X017883Y004730D01*
X017853Y004672D01*
X017833Y004610D01*
X017823Y004545D01*
X017823Y004512D01*
X017823Y004479D01*
X017833Y004415D01*
X017853Y004352D01*
X017883Y004294D01*
X017921Y004241D01*
X017968Y004195D01*
X018021Y004156D01*
X017968Y003986D02*
X017328Y003986D01*
X017422Y003828D02*
X017874Y003828D01*
X017863Y003669D02*
X017434Y003669D01*
X017554Y003511D02*
X017921Y003511D01*
X017713Y003352D02*
X018155Y003352D01*
X018323Y003352D02*
X021946Y003352D01*
X021946Y003194D02*
X018514Y003194D01*
X018605Y003035D02*
X021946Y003035D01*
X021946Y002877D02*
X018615Y002877D01*
X018741Y002718D02*
X021946Y002718D01*
X021946Y002560D02*
X018899Y002560D01*
X019029Y002401D02*
X021946Y002401D01*
X021946Y002242D02*
X019029Y002242D01*
X019029Y002084D02*
X021946Y002084D01*
X021946Y001925D02*
X019029Y001925D01*
X019029Y001767D02*
X021946Y001767D01*
X021946Y001608D02*
X019029Y001608D01*
X019029Y001450D02*
X021946Y001450D01*
X021946Y001291D02*
X019029Y001291D01*
X019029Y001133D02*
X021946Y001133D01*
X021946Y000974D02*
X019029Y000974D01*
X018959Y000816D02*
X021946Y000816D01*
X021946Y000657D02*
X018800Y000657D01*
X018552Y000974D02*
X016941Y000974D01*
X016681Y001291D02*
X016624Y001291D01*
X016687Y001450D02*
X016543Y001450D01*
X016421Y001608D02*
X016771Y001608D01*
X016845Y001831D02*
X016983Y001774D01*
X017132Y001774D01*
X017271Y001831D01*
X017377Y001937D01*
X017434Y002075D01*
X017434Y002225D01*
X017377Y002363D01*
X017271Y002469D01*
X017132Y002526D01*
X016983Y002526D01*
X016845Y002469D01*
X016739Y002363D01*
X016681Y002225D01*
X016681Y002075D01*
X016739Y001937D01*
X016845Y001831D01*
X016750Y001925D02*
X015286Y001925D01*
X015286Y002084D02*
X016681Y002084D01*
X016689Y002242D02*
X015286Y002242D01*
X015286Y002401D02*
X016777Y002401D01*
X016745Y002718D02*
X015286Y002718D01*
X015286Y002560D02*
X017546Y002560D01*
X017448Y002718D02*
X017370Y002718D01*
X017434Y002877D02*
X017448Y002877D01*
X017448Y003035D02*
X017424Y003035D01*
X017848Y003035D02*
X017872Y003035D01*
X017863Y002877D02*
X017848Y002877D01*
X017848Y003194D02*
X017963Y003194D01*
X018557Y003511D02*
X021946Y003511D01*
X021946Y003669D02*
X018615Y003669D01*
X018603Y003828D02*
X021946Y003828D01*
X021946Y003986D02*
X018509Y003986D01*
X018435Y004145D02*
X021946Y004145D01*
X021946Y004304D02*
X018600Y004304D01*
X018652Y004462D02*
X021946Y004462D01*
X021946Y004621D02*
X018641Y004621D01*
X018559Y004779D02*
X021946Y004779D01*
X021946Y004938D02*
X016449Y004938D01*
X016496Y005096D02*
X021946Y005096D01*
X021946Y005255D02*
X016457Y005255D01*
X017323Y004779D02*
X017918Y004779D01*
X017836Y004621D02*
X017420Y004621D01*
X017434Y004462D02*
X017825Y004462D01*
X017823Y004512D02*
X018238Y004512D01*
X018238Y004512D01*
X017823Y004512D01*
X017878Y004304D02*
X017378Y004304D01*
X016787Y003986D02*
X016488Y003986D01*
X016647Y003828D02*
X016693Y003828D01*
X016398Y003511D02*
X015286Y003511D01*
X015286Y003669D02*
X016240Y003669D01*
X016557Y003352D02*
X015286Y003352D01*
X015286Y003194D02*
X016715Y003194D01*
X016691Y003035D02*
X015286Y003035D01*
X015286Y002877D02*
X016681Y002877D01*
X017339Y002401D02*
X017705Y002401D01*
X017863Y002242D02*
X017426Y002242D01*
X017434Y002084D02*
X017863Y002084D01*
X017931Y001925D02*
X017365Y001925D01*
X017344Y001608D02*
X017953Y001608D01*
X017920Y001576D02*
X017863Y001437D01*
X017863Y001288D01*
X017920Y001149D01*
X018026Y001044D01*
X018164Y000986D01*
X018314Y000986D01*
X018452Y001044D01*
X018558Y001149D01*
X018615Y001288D01*
X018615Y001437D01*
X018558Y001576D01*
X018452Y001681D01*
X018314Y001739D01*
X018164Y001739D01*
X018026Y001681D01*
X017920Y001576D01*
X017868Y001450D02*
X017429Y001450D01*
X017434Y001291D02*
X017863Y001291D01*
X017937Y001133D02*
X017360Y001133D01*
X016693Y000657D02*
X015848Y000657D01*
X015910Y000816D02*
X016534Y000816D01*
X016376Y000974D02*
X015910Y000974D01*
X015909Y001133D02*
X016097Y001133D01*
X015991Y001291D02*
X015844Y001291D01*
X015769Y001450D02*
X015998Y001450D01*
X016119Y001608D02*
X015610Y001608D01*
X015307Y001767D02*
X018629Y001767D01*
X018629Y001925D02*
X018546Y001925D01*
X018615Y002084D02*
X018629Y002084D01*
X018629Y002242D02*
X018608Y002242D01*
X018629Y001608D02*
X018525Y001608D01*
X018610Y001450D02*
X018629Y001450D01*
X018615Y001291D02*
X018629Y001291D01*
X018629Y001133D02*
X018541Y001133D01*
X015779Y000499D02*
X021946Y000499D01*
X018239Y004621D02*
X018239Y004621D01*
X018239Y004779D02*
X018239Y004779D01*
X018103Y006523D02*
X017193Y006523D01*
X016922Y006523D02*
X015646Y006523D01*
X015319Y006523D02*
X015286Y006523D01*
X015286Y006682D02*
X016730Y006682D01*
X016681Y006840D02*
X015286Y006840D01*
X015286Y006999D02*
X016702Y006999D01*
X016809Y007157D02*
X015286Y007157D01*
X015286Y007316D02*
X016909Y007316D01*
X016728Y007474D02*
X015286Y007474D01*
X015286Y007633D02*
X016681Y007633D01*
X016704Y007791D02*
X015286Y007791D01*
X015286Y007950D02*
X016814Y007950D01*
X016897Y008109D02*
X015286Y008109D01*
X015286Y008267D02*
X016726Y008267D01*
X016681Y008426D02*
X015286Y008426D01*
X015286Y008584D02*
X016706Y008584D01*
X016819Y008743D02*
X015286Y008743D01*
X015286Y008901D02*
X016884Y008901D01*
X016724Y009060D02*
X015286Y009060D01*
X015286Y009218D02*
X016681Y009218D01*
X016709Y009377D02*
X015286Y009377D01*
X015286Y009535D02*
X016825Y009535D01*
X016804Y009694D02*
X015486Y009694D01*
X015684Y009853D02*
X016678Y009853D01*
X016641Y010011D02*
X015809Y010011D01*
X015875Y010170D02*
X016667Y010170D01*
X016773Y010328D02*
X015910Y010328D01*
X015910Y010487D02*
X021946Y010487D01*
X021946Y010645D02*
X015883Y010645D01*
X015817Y010804D02*
X021946Y010804D01*
X021946Y010962D02*
X015705Y010962D01*
X017057Y010328D02*
X017058Y010328D01*
X017057Y010170D02*
X017058Y010170D01*
X012699Y006523D02*
X012075Y006523D01*
X012194Y006365D02*
X012669Y006365D01*
X012566Y006206D02*
X012297Y006206D01*
X012316Y006048D02*
X012548Y006048D01*
X011675Y004779D02*
X011549Y004779D01*
X011549Y004621D02*
X011577Y004621D01*
X011563Y004462D02*
X011549Y004462D01*
X011549Y004304D02*
X011619Y004304D01*
X011549Y004145D02*
X011843Y004145D01*
X011865Y004101D02*
X011726Y004044D01*
X011621Y003938D01*
X011563Y003800D01*
X011563Y003650D01*
X011621Y003512D01*
X011726Y003406D01*
X011865Y003349D01*
X012014Y003349D01*
X012153Y003406D01*
X012258Y003512D01*
X012316Y003650D01*
X012316Y003800D01*
X012258Y003938D01*
X012153Y004044D01*
X012014Y004101D01*
X011865Y004101D01*
X011669Y003986D02*
X011549Y003986D01*
X011549Y003828D02*
X011575Y003828D01*
X011563Y003669D02*
X011549Y003669D01*
X011549Y003511D02*
X011621Y003511D01*
X011549Y003352D02*
X011856Y003352D01*
X012023Y003352D02*
X012840Y003352D01*
X013008Y003352D02*
X014695Y003352D01*
X014695Y003194D02*
X013199Y003194D01*
X013290Y003035D02*
X014695Y003035D01*
X014695Y003511D02*
X013242Y003511D01*
X013300Y003669D02*
X014695Y003669D01*
X014623Y003828D02*
X013288Y003828D01*
X013194Y003986D02*
X014611Y003986D01*
X013368Y002877D02*
X013300Y002877D01*
X012648Y003194D02*
X012215Y003194D01*
X012306Y003035D02*
X012557Y003035D01*
X012548Y002877D02*
X012316Y002877D01*
X011664Y003194D02*
X011549Y003194D01*
X011549Y003035D02*
X011573Y003035D01*
X011563Y002877D02*
X011549Y002877D01*
X012258Y003511D02*
X012606Y003511D01*
X012548Y003669D02*
X012316Y003669D01*
X012304Y003828D02*
X012559Y003828D01*
X012654Y003986D02*
X012210Y003986D01*
D13*
X013908Y003803D03*
X014892Y003922D03*
X016211Y005103D03*
X015483Y006284D03*
X014636Y006146D03*
X015286Y007465D03*
X014695Y008646D03*
X014105Y008646D03*
X014499Y002740D03*
X016270Y001363D03*
D14*
X016861Y000772D01*
X018632Y000772D01*
X018829Y000969D01*
X018829Y002347D01*
X018239Y002937D01*
X017648Y003134D02*
X017648Y002740D01*
X018239Y002150D01*
X017648Y003134D02*
X017451Y003331D01*
X016861Y003331D01*
X016270Y003922D01*
X014892Y003922D01*
X013908Y003803D02*
X013908Y003725D01*
X013514Y002740D02*
X013317Y002544D01*
X011546Y002544D01*
X011349Y002740D01*
X011349Y008646D01*
X011940Y009237D01*
X012924Y009237D02*
X013514Y008646D01*
X014105Y008646D01*
X014499Y008252D02*
X014695Y008449D01*
X014695Y008646D01*
X014499Y008252D02*
X013121Y008252D01*
X012924Y008449D01*
X012432Y007957D02*
X011940Y008449D01*
X012432Y007957D02*
X012432Y007465D01*
X012629Y007268D01*
X013514Y007268D01*
X014636Y006146D01*
X014499Y005693D02*
X014892Y005693D01*
X015483Y006284D01*
X016211Y005103D02*
X013908Y005103D01*
X013317Y005693D01*
X012333Y005693D01*
X011940Y006087D01*
X013514Y002740D02*
X014499Y002740D01*
D15*
X015286Y007465D02*
X015483Y007465D01*
M02*
